<svg width="20" height="20" viewBox="0 0 20 20" fill="none" xmlns="http://www.w3.org/2000/svg">
<path opacity="0.5" d="M14.5473 7.94233C14.5475 8.15786 14.5338 8.37317 14.5063 8.58694C14.4821 8.7811 14.4459 8.97357 14.3979 9.16325C14.2216 9.87157 13.8951 10.5337 13.4405 11.1047C12.9858 11.6757 12.4136 12.1423 11.7628 12.4727C11.1119 12.8031 10.3976 12.9896 9.66832 13.0197C8.93902 13.0497 8.21179 12.9225 7.53598 12.6467C6.85525 12.3674 6.24319 11.9438 5.74203 11.405C5.24087 10.8663 4.86254 10.2252 4.63311 9.5261C4.5322 9.22067 4.46128 8.90613 4.42137 8.58694C4.39348 8.37321 4.37979 8.15787 4.38039 7.94233C4.38039 6.59366 4.91615 5.30023 5.8698 4.34658C6.82345 3.39293 8.11687 2.85718 9.46554 2.85718C10.8142 2.85718 12.1076 3.39293 13.0613 4.34658C14.0149 5.30023 14.5507 6.59366 14.5507 7.94233H14.5473Z" fill="#7E8299"/>
<path opacity="0.3" fill-rule="evenodd" clip-rule="evenodd" d="M11.6646 12.5215L11.6668 12.5246L12.3105 13.4467L15.1195 17.4791C15.1438 17.5157 15.18 17.5428 15.2219 17.556C15.2498 17.564 15.2794 17.564 15.3073 17.556C15.3275 17.5476 15.3454 17.5344 15.3594 17.5176C15.3686 17.5043 15.3755 17.4896 15.3799 17.474C15.385 17.4655 15.385 17.4569 15.385 17.4458L15.6616 14.7829C15.6609 14.7746 15.6609 14.7664 15.6616 14.7581C15.6634 14.7504 15.6663 14.7429 15.6702 14.7359C15.6707 14.7327 15.6719 14.7296 15.6737 14.7268C15.6754 14.724 15.6777 14.7216 15.6804 14.7197L15.689 14.706C15.6936 14.6988 15.7005 14.6934 15.7086 14.6907C15.7238 14.6799 15.7412 14.6727 15.7595 14.6696C15.7778 14.6665 15.7966 14.6676 15.8145 14.6727L18.4117 15.3395C18.544 15.3728 18.6217 15.2234 18.5355 15.1039L14.5491 9.38353L14.4014 9.17179L14.3975 9.16614C14.2211 9.87339 13.8949 10.5345 13.4408 11.1048C12.9862 11.6758 12.414 12.1423 11.7631 12.4727C11.7304 12.4893 11.6976 12.5056 11.6646 12.5215Z" fill="#7E8299"/>
<path opacity="0.3" fill-rule="evenodd" clip-rule="evenodd" d="M4.63345 9.52734L4.63312 9.52782L4.41626 9.8386L0.750952 15.1013C0.664719 15.2251 0.740706 15.3728 0.876458 15.3396L3.47026 14.6727C3.4881 14.6674 3.50693 14.6662 3.52529 14.6694C3.54365 14.6725 3.56105 14.6798 3.57613 14.6907C3.58434 14.6949 3.5916 14.7007 3.59748 14.7078C3.59951 14.7088 3.60132 14.7102 3.60279 14.712C3.60425 14.7138 3.60535 14.7158 3.60601 14.718C3.61133 14.7236 3.6154 14.7303 3.61797 14.7376C3.62183 14.7446 3.62471 14.7521 3.6265 14.7598C3.62976 14.7677 3.63149 14.7761 3.63163 14.7846L3.90398 17.4476C3.90617 17.4663 3.91166 17.4845 3.92021 17.5013C3.92677 17.5149 3.93596 17.527 3.94725 17.537C3.95853 17.5469 3.97169 17.5546 3.98595 17.5594C4.01277 17.5676 4.04132 17.5684 4.06855 17.5616C4.09577 17.5549 4.12064 17.5408 4.14048 17.521C4.15204 17.5099 4.16235 17.4976 4.17122 17.4843L6.87175 13.6072L7.54026 12.6493L7.5407 12.6486C7.53911 12.648 7.53751 12.6473 7.53591 12.6467C6.85518 12.3674 6.24312 11.9438 5.74196 11.405C5.2411 10.8666 4.86292 10.226 4.63345 9.52734Z" fill="#7E8299"/>
<path d="M9.70201 5.28455L10.4047 6.70866C10.4237 6.74701 10.4517 6.78017 10.4864 6.8053C10.521 6.83043 10.5613 6.84678 10.6036 6.85295L12.1746 7.08092C12.2234 7.08792 12.2694 7.10848 12.3071 7.14028C12.3449 7.17208 12.373 7.21383 12.3882 7.26079C12.4034 7.30775 12.4051 7.35803 12.3931 7.40593C12.3812 7.45382 12.3561 7.4974 12.3206 7.53172L11.1842 8.64164C11.1535 8.6714 11.1306 8.70817 11.1174 8.74878C11.1041 8.7894 11.101 8.83262 11.1082 8.87472L11.3763 10.4423C11.3846 10.4908 11.3792 10.5406 11.3607 10.5862C11.3422 10.6318 11.3113 10.6713 11.2715 10.7003C11.2317 10.7292 11.1846 10.7465 11.1356 10.7501C11.0865 10.7537 11.0374 10.7435 10.9938 10.7206L9.58846 9.98208C9.55062 9.9619 9.5084 9.95135 9.46551 9.95135C9.42263 9.95135 9.38041 9.9619 9.34257 9.98208L7.93724 10.7206C7.89366 10.7435 7.84455 10.7537 7.79548 10.7501C7.7464 10.7465 7.69931 10.7292 7.65952 10.7003C7.61974 10.6713 7.58884 10.6318 7.57032 10.5862C7.55181 10.5406 7.54641 10.4908 7.55474 10.4423L7.82283 8.87728C7.83005 8.83518 7.8269 8.79196 7.81366 8.75134C7.80042 8.71073 7.77749 8.67396 7.74684 8.6442L6.6096 7.53428C6.57442 7.49977 6.54958 7.45612 6.53786 7.40826C6.52615 7.3604 6.52803 7.31021 6.54329 7.26336C6.55855 7.2165 6.58659 7.17484 6.62425 7.14306C6.66191 7.11128 6.7077 7.09065 6.75645 7.08348L8.32742 6.85552C8.36977 6.84934 8.41 6.83299 8.44465 6.80786C8.47929 6.78273 8.50733 6.74957 8.52635 6.71123L9.22902 5.28711C9.25058 5.24289 9.28408 5.20558 9.32573 5.17939C9.36738 5.15321 9.41552 5.13919 9.46472 5.13892C9.51392 5.13865 9.56221 5.15215 9.60414 5.17788C9.64607 5.20362 9.67997 5.24056 9.70201 5.28455Z" fill="#7E8299"/>
</svg>
