<svg width="24" height="33" viewBox="0 0 24 33" fill="none" xmlns="http://www.w3.org/2000/svg">
<path d="M23.0246 29.6639L22.9745 29.2131C22.9547 29.0348 22.7941 28.9063 22.6158 28.9261L22.5877 28.9292L22.1031 25.0524C21.9977 24.2091 21.4174 23.5012 20.6112 23.2325L17.5137 22.1999C17.2488 22.1116 16.9587 22.2339 16.8413 22.4872C16.8359 22.4988 16.8303 22.5105 16.8249 22.5221L16.0645 22.2686C15.6139 22.1184 15.3101 21.6967 15.3101 21.2218V19.4423L17.6867 18.4521C18.9202 17.9382 19.7237 16.7329 19.7237 15.3965V14.8448C20.6378 14.8448 21.3789 14.1037 21.3789 13.1896C21.3789 12.8094 21.2503 12.4593 21.0348 12.1799C21.3664 10.5374 21.9707 7.33756 21.9285 6.01722C21.9003 5.13446 21.3413 3.95274 19.7216 3.25861C16.8266 2.01786 13.197 1.64972 11.9996 0.501724V0.5C11.9993 0.500276 11.9988 0.500552 11.9985 0.500828C11.9983 0.500552 11.9978 0.500276 11.9975 0.5V0.501724C10.8001 1.64972 7.1705 2.01786 4.27548 3.25861C2.65576 3.95274 2.0968 5.13446 2.06859 6.01722C2.02639 7.33811 2.63114 10.5402 2.96273 12.182C2.74818 12.4611 2.62032 12.8104 2.62032 13.1896C2.62032 14.1037 3.36135 14.8448 4.27548 14.8448V15.3965C4.27548 16.7328 5.079 17.9381 6.31258 18.4522L8.68926 19.4425V21.2219C8.68926 21.6969 8.38533 22.1185 7.93478 22.2687L7.17437 22.5222C7.16899 22.5107 7.1634 22.499 7.15802 22.4874C7.04057 22.234 6.75044 22.1118 6.48561 22.2L3.38811 23.2326C2.58183 23.5013 2.00156 24.2092 1.89618 25.0525L1.41156 28.9293L1.38349 28.9262C1.20515 28.9064 1.0446 29.0349 1.02474 29.2133L0.974668 29.664C0.954875 29.8423 1.08336 30.0029 1.26163 30.0227L2.06866 30.1124V31.3966C2.06866 32.0059 2.56266 32.5 3.17211 32.5H5.93072H18.0686H20.8272C21.4366 32.5 21.9306 32.0059 21.9306 31.3966V30.1124L22.7377 30.0227C22.9159 30.0028 23.0444 29.8421 23.0246 29.6639Z" fill="#F6B47B"/>
<path d="M8.68703 19.3965V21.2219C8.68703 21.6145 8.47896 21.9703 8.15234 22.1667C12.7679 22.9642 15.3077 19.3965 15.3077 19.3965H8.68703Z" fill="#E2A071"/>
<path d="M21.9284 6.01722C21.9002 5.13446 21.3412 3.95274 19.7215 3.25861C16.8265 2.01786 13.1969 1.64972 11.9995 0.501724V0.5C11.9992 0.500276 11.9987 0.500552 11.9985 0.500828C11.9982 0.500552 11.9977 0.500276 11.9974 0.5V0.501724C10.8 1.64972 7.17041 2.01786 4.27539 3.25861C2.65567 3.95274 2.09671 5.13446 2.0685 6.01722C2.01057 7.83052 3.17195 13.1896 3.17195 13.1896H20.825C20.825 13.1896 21.9863 7.83052 21.9284 6.01722Z" fill="#9D6E48"/>
<path d="M11.9974 0.5V0.501724C10.8001 1.64972 7.17041 2.01786 4.27539 3.25861C2.65567 3.95274 2.09671 5.13446 2.0685 6.01722C2.01057 7.83052 3.17195 13.1896 3.17195 13.1896H8.13745C8.13745 13.1896 8.13745 9.95879 8.13745 8.2241C8.13745 4.54591 11.9995 2.79882 11.9995 0.5C11.9992 0.500276 11.9987 0.500552 11.9985 0.500828C11.9982 0.500552 11.9977 0.500276 11.9974 0.5Z" fill="#8D5F3D"/>
<path d="M22.1029 25.0525C21.9976 24.2092 21.4172 23.5013 20.611 23.2325L17.5135 22.2C17.2486 22.1117 16.9585 22.234 16.841 22.4873C16.0754 24.1387 14.9932 25.9357 11.9994 28.0861C9.00568 25.9357 7.92334 24.1387 7.15776 22.4872C7.04031 22.2339 6.75017 22.1116 6.48528 22.1999L3.38778 23.2325C2.5815 23.5012 2.00123 24.2091 1.89585 25.0524L1.37109 29.2504L5.93045 29.7413V32.4999H18.0683V29.7413L22.6276 29.2504L22.1029 25.0525Z" fill="#4F6E7F"/>
<path d="M19.7245 11.5344V10.431C19.7245 8.90746 18.4894 7.67236 16.9659 7.67236H7.03487C5.51136 7.67236 4.27626 8.90746 4.27626 10.431V11.5344C3.36212 11.5344 2.62109 12.2754 2.62109 13.1896C2.62109 14.1037 3.36212 14.8447 4.27626 14.8447V15.3965C4.27626 16.7328 5.07977 17.9381 6.31335 18.4522L9.87823 19.9375C10.5506 20.2178 11.2719 20.362 12.0003 20.362C12.7287 20.362 13.4499 20.2178 14.1223 19.9375L17.6874 18.4521C18.9209 17.9382 19.7245 16.7329 19.7245 15.3965V14.8447C20.6386 14.8447 21.3796 14.1037 21.3796 13.1896C21.3796 12.2754 20.6386 11.5344 19.7245 11.5344Z" fill="#FDC88E"/>
<path d="M8.13766 13.7411C7.83421 13.7411 7.58594 13.4928 7.58594 13.1894V12.6377C7.58594 12.3342 7.83421 12.0859 8.13766 12.0859C8.44111 12.0859 8.68938 12.3342 8.68938 12.6377V13.1894C8.68938 13.4928 8.44111 13.7411 8.13766 13.7411Z" fill="#623F33"/>
<path d="M15.8603 13.7411C15.5569 13.7411 15.3086 13.4928 15.3086 13.1894V12.6377C15.3086 12.3342 15.5569 12.0859 15.8603 12.0859C16.1638 12.0859 16.412 12.3342 16.412 12.6377V13.1894C16.412 13.4928 16.1638 13.7411 15.8603 13.7411Z" fill="#623F33"/>
<path d="M12.0009 17.6186C11.02 17.6186 10.1025 17.3772 9.48365 16.9562C9.23179 16.7849 9.16627 16.4417 9.33793 16.1898C9.50896 15.9382 9.85248 15.8727 10.1043 16.0441C10.5381 16.339 11.2471 16.5152 12.0009 16.5152C12.7547 16.5152 13.4637 16.339 13.8974 16.0441C14.1498 15.8722 14.4925 15.9379 14.6638 16.1898C14.8354 16.4417 14.77 16.7849 14.5181 16.9562C13.8994 17.3772 12.9818 17.6186 12.0009 17.6186Z" fill="#E2A071"/>
<path d="M7.17245 17.3085C6.72542 16.8292 6.48315 16.1967 6.48315 15.5412V7.72803C5.22405 7.98368 4.27626 9.0965 4.27626 10.431V11.5345C3.36212 11.5345 2.62109 12.2755 2.62109 13.1897C2.62109 14.1038 3.36212 14.8448 4.27626 14.8448V15.3965C4.27626 16.7329 5.07977 17.9383 6.31335 18.4523L9.87816 19.9376C10.0526 20.0103 10.2307 20.0729 10.4111 20.1272C8.83555 18.9747 7.78686 17.9672 7.17245 17.3085Z" fill="#F6B47B"/>
<path d="M5.93112 30.158V28.9093C5.93112 28.3785 5.73981 27.8655 5.39229 27.4643L2.35651 23.96C2.11155 24.2701 1.94755 24.6448 1.89659 25.0526L1.32031 29.6627C2.19783 29.7154 4.53188 29.9888 5.93112 30.158Z" fill="#33546A"/>
<path d="M5.93079 29.4316L1.38349 28.9263C1.20515 28.9065 1.0446 29.035 1.02474 29.2133L0.974668 29.664C0.954875 29.8423 1.08336 30.0029 1.26163 30.0227L5.93079 30.5416V29.4316Z" fill="#4F6E7F"/>
<path d="M18.0664 30.158V28.9093C18.0664 28.3785 18.2577 27.8655 18.6052 27.4643L21.641 23.96C21.886 24.2701 22.05 24.6448 22.1009 25.0526L22.6772 29.6627C21.7998 29.7154 19.4656 29.9888 18.0664 30.158Z" fill="#33546A"/>
<path d="M18.0664 29.4316L22.6137 28.9263C22.792 28.9065 22.9526 29.035 22.9725 29.2133L23.0225 29.664C23.0423 29.8423 22.9138 30.0029 22.7356 30.0227L18.0664 30.5416V29.4316Z" fill="#4F6E7F"/>
<path d="M14.6133 7.39648C15.3873 7.94455 17.0793 9.26758 18.0669 10.9827C18.0669 10.9827 18.0911 9.05489 17.0529 7.39648H14.6133Z" fill="#9D6E48"/>
</svg>
