<svg width="28" height="33" viewBox="0 0 28 33" fill="none" xmlns="http://www.w3.org/2000/svg">
<path d="M27.2394 11.5345C27.2394 11.5345 24.9635 11.8103 23.929 8.22414C22.5017 3.276 19.3303 0.5 13.998 0.5C8.66566 0.5 5.49428 3.276 4.06697 8.22414C3.03249 11.8103 0.756623 11.5345 0.756623 11.5345C0.756623 11.5345 -0.484756 14.2931 2.4118 15.9483H1.30835C1.30835 15.9483 1.97911 19.2981 5.35683 19.7535C5.78614 20.7235 7.12911 22.0172 11.2394 22.0172H13.998H16.7566C20.8669 22.0172 22.2099 20.7234 22.6392 19.7535C26.0169 19.2981 26.6877 15.9483 26.6877 15.9483H25.5842C28.4808 14.2931 27.2394 11.5345 27.2394 11.5345Z" fill="#9D6E48"/>
<path d="M19.5152 11.5345C12.6877 8.08621 13.1014 2.01724 13.998 0.5C8.66573 0.5 5.49428 3.276 4.06697 8.22414C3.03249 11.8103 0.756623 11.5345 0.756623 11.5345C0.756623 11.5345 -0.484756 14.2931 2.4118 15.9483H1.30835C1.30835 15.9483 1.97911 19.2981 5.35683 19.7535C5.78614 20.7235 7.12911 22.0172 11.2394 22.0172L19.5152 11.5345Z" fill="#8D5F3D"/>
<path d="M24.2306 30.6261L23.5969 25.8738C23.4616 24.8592 22.7757 24.0029 21.8151 23.6495L18.0625 22.2688C17.612 22.1186 17.308 21.6969 17.308 21.2219V19.4425L19.6847 18.4522C20.9183 17.9382 21.7218 16.7329 21.7218 15.3965V14.8448C22.636 14.8448 23.377 14.1037 23.377 13.1896C23.377 12.2755 22.636 11.5344 21.7218 11.5344V10.431C21.7218 8.9074 20.4867 7.67236 18.9632 7.67236H9.03217C7.50858 7.67236 6.27355 8.90747 6.27355 10.431V11.5344C5.35941 11.5344 4.61838 12.2755 4.61838 13.1896C4.61838 14.1037 5.35941 14.8448 6.27355 14.8448V15.3965C6.27355 16.7329 7.07707 17.9382 8.31065 18.4522L10.6873 19.4425V21.2219C10.6873 21.6968 10.3834 22.1185 9.93286 22.2687L6.18031 23.6494C5.21969 24.0028 4.53375 24.8591 4.39844 25.8737L3.76479 30.626C3.63251 31.6183 4.40438 32.4999 5.40541 32.4999H13.9977H22.59C23.591 32.4999 24.3629 31.6183 24.2306 30.6261Z" fill="#F6B47B"/>
<path d="M10.6909 19.4654V21.2218C10.6909 21.6144 10.4828 21.9702 10.1562 22.1667C14.553 22.9264 17.0661 19.7666 17.2944 19.4653H10.6909V19.4654Z" fill="#E2A071"/>
<path d="M21.7206 11.5344V10.431C21.7206 8.9074 20.4855 7.67236 18.962 7.67236H9.03098C7.5074 7.67236 6.27236 8.90747 6.27236 10.431V11.5344C5.35822 11.5344 4.61719 12.2755 4.61719 13.1896C4.61719 14.1037 5.35822 14.8448 6.27236 14.8448V15.3965C6.27236 16.7329 7.07588 17.9382 8.30946 18.4522L11.8744 19.9376C12.5468 20.2178 13.268 20.362 13.9964 20.362C14.7248 20.362 15.446 20.2178 16.1184 19.9376L19.6835 18.4522C20.9171 17.9382 21.7206 16.7329 21.7206 15.3965V14.8448C22.6348 14.8448 23.3758 14.1037 23.3758 13.1896C23.3758 12.2755 22.6348 11.5344 21.7206 11.5344Z" fill="#FDC88E"/>
<path d="M10.1338 13.7416C9.83031 13.7416 9.58203 13.4933 9.58203 13.1899V12.6382C9.58203 12.3347 9.83031 12.0864 10.1338 12.0864C10.4372 12.0864 10.6855 12.3347 10.6855 12.6382V13.1899C10.6855 13.4933 10.4372 13.7416 10.1338 13.7416Z" fill="#623F33"/>
<path d="M13.997 17.6186C13.0161 17.6186 12.0986 17.3772 11.4797 16.9562C11.2279 16.7849 11.1624 16.4417 11.334 16.1898C11.5051 15.9382 11.8486 15.8727 12.1004 16.0441C12.5342 16.339 13.2432 16.5152 13.997 16.5152C14.7508 16.5152 15.4598 16.339 15.8935 16.0441C16.1459 15.8722 16.4886 15.9379 16.6599 16.1898C16.8315 16.4417 16.7661 16.7849 16.5142 16.9562C15.8955 17.3772 14.9779 17.6186 13.997 17.6186Z" fill="#E2A071"/>
<path d="M20.3311 23.0284L18.3458 26.2049C18.0433 26.6888 17.5129 26.9828 16.9422 26.9828H11.0528C10.4821 26.9828 9.9517 26.6888 9.64922 26.2049L7.66398 23.0284C7.50453 22.7733 7.17018 22.693 6.91225 22.8478L5.09998 23.9351C4.83535 24.0939 4.75239 24.4389 4.91598 24.7006L7.3768 28.638H20.6182L23.079 24.7006C23.2426 24.4389 23.1596 24.0939 22.895 23.9351L21.0827 22.8477C20.8249 22.693 20.4905 22.7734 20.3311 23.0284Z" fill="#F23F44"/>
<path d="M20.6164 28.6377H7.375V32.4998H20.6164V28.6377Z" fill="#FF4F4F"/>
<path d="M9.16863 17.3084C8.7216 16.8291 8.47933 16.1966 8.47933 15.5412V9.68864C10.3961 11.0319 13.0476 12.0824 17.9966 12.362L17.5138 10.7068C17.5138 10.7068 14.0822 8.7776 12.4103 7.67236H9.03098C8.84188 7.67236 8.6576 7.69223 8.47926 7.7285V7.72795C8.43677 7.73657 8.39477 7.74636 8.35305 7.75691C8.34919 7.75788 8.34519 7.75857 8.34132 7.75954C8.34036 7.75981 8.33953 7.76057 8.3385 7.76085C7.15029 8.06816 6.27236 9.14671 6.27236 10.431V11.5344C5.35822 11.5344 4.61719 12.2755 4.61719 13.1896C4.61719 14.1037 5.35822 14.8448 6.27236 14.8448V15.3965C6.27236 16.7329 7.07588 17.9382 8.30946 18.4522L11.8743 19.9376C12.0488 20.0103 12.2268 20.0729 12.4072 20.1272C10.8317 18.9746 9.78305 17.9672 9.16863 17.3084Z" fill="#F6B47B"/>
<path d="M17.8603 13.7416C17.5569 13.7416 17.3086 13.4933 17.3086 13.1899V12.6382C17.3086 12.3347 17.5569 12.0864 17.8603 12.0864C18.1638 12.0864 18.412 12.3347 18.412 12.6382V13.1899C18.412 13.4933 18.1638 13.7416 17.8603 13.7416Z" fill="#623F33"/>
<path d="M19.5137 11.5344L18.962 10.431C18.962 10.431 20.7077 11.5323 21.7895 11.5323V7.39648H8.76562C10.8503 9.39242 13.4494 11.5344 19.5137 11.5344Z" fill="#9D6E48"/>
<path d="M19.5138 11.5344C17.1956 10.3637 15.713 8.89076 14.7998 7.39648H8.76562C10.8504 9.39242 13.4495 11.5344 19.5138 11.5344Z" fill="#8D5F3D"/>
</svg>
