<svg width="30" height="33" viewBox="0 0 30 33" fill="none" xmlns="http://www.w3.org/2000/svg">
<path d="M25.4661 29.0509L25.3608 28.6905C25.31 28.5163 25.1403 28.4096 24.9659 28.4318L24.598 25.673C24.4772 24.7667 23.9151 23.9792 23.0973 23.5703L21.9089 22.9761C21.7289 22.8861 21.5224 22.969 21.4383 23.1427L19.0628 22.2686C18.6121 22.1184 18.3083 21.6967 18.3083 21.2218V19.4423L20.6849 18.4521C21.9185 17.9381 22.7221 16.7328 22.7221 15.3964V14.8447C23.6362 14.8447 24.3772 14.1037 24.3772 13.1895C24.3772 12.2754 23.6362 11.5344 22.7221 11.5344V10.4309C22.7221 8.90739 21.487 6.56885 19.9634 6.56885H10.0324C8.50885 6.56885 7.27381 8.90739 7.27381 10.4309V11.5344C6.35968 11.5344 5.61864 12.2754 5.61864 13.1895C5.61864 14.1037 6.35968 14.8447 7.27381 14.8447V15.3964C7.27381 16.7328 8.07733 17.9381 9.31091 18.4521L11.6876 19.4425V21.2219C11.6876 21.6968 11.3837 22.1185 10.9331 22.2687L8.60443 23.1255C8.51636 22.9632 8.31767 22.8883 8.14395 22.9752L7.06023 23.5171C6.1354 23.9795 5.57389 24.7668 5.45306 25.6731L5.0852 28.4318C4.91071 28.4096 4.74113 28.5164 4.69023 28.6905L4.58499 29.051C4.52865 29.244 4.63947 29.4461 4.83244 29.5025L5.61864 29.7318V31.3965C5.61864 32.0058 6.11271 32.4999 6.72209 32.4999H8.95657H21.0945H23.2738C23.8832 32.4999 24.3772 32.0058 24.3772 31.3965V29.7478L25.2185 29.5025C25.4116 29.4461 25.5224 29.244 25.4661 29.0509Z" fill="#FFD7A3"/>
<path d="M18.3076 19.396H11.687V21.2216C11.687 21.6143 11.4789 21.97 11.1523 22.1665C15.7678 22.9639 18.3076 19.396 18.3076 19.396Z" fill="#FDC88E"/>
<path d="M25.0386 28.9782L24.5979 25.673C24.4771 24.7667 23.915 23.9791 23.0972 23.5702L21.9088 22.976C21.7075 22.8753 21.4725 22.9907 21.4134 23.2079C20.6486 26.019 18.0788 28.0862 15.0253 28.0862C11.9712 28.0862 9.40086 26.018 8.63673 23.2058C8.57797 22.9896 8.34417 22.8749 8.1439 22.9751L7.06018 23.5169C6.13535 23.9793 5.57384 24.7667 5.45301 25.6729L5.00391 29.0409C6.46149 29.5429 8.95652 30.2929 8.95652 30.2929V32.4998H21.0944V30.2929L25.0386 28.9782Z" fill="#8DB9E2"/>
<path d="M8.94286 30.1246C8.90913 29.4685 8.6901 28.8346 8.29445 28.307L5.70431 24.8535C5.57928 25.111 5.49142 25.3851 5.45293 25.6733L5.01562 28.9534L8.94286 30.1246Z" fill="#6AA2DE"/>
<path d="M4.58499 29.0512C4.52865 29.2443 4.63947 29.4464 4.83244 29.5027L8.9565 30.7057V30.2932C8.9565 30.0326 8.91554 29.7773 8.85574 29.5268L5.14154 28.4434C4.94858 28.3871 4.74651 28.4978 4.69023 28.6908L4.58499 29.0512Z" fill="#4E87BB"/>
<path d="M21.1094 30.1246C21.1431 29.4685 21.3621 28.8346 21.7578 28.307L24.3479 24.8535C24.473 25.111 24.5608 25.3851 24.5993 25.6733L25.0366 28.9534L21.1094 30.1246Z" fill="#6AA2DE"/>
<path d="M25.4653 29.0512C25.5217 29.2443 25.4109 29.4464 25.2179 29.5027L21.0938 30.7057V30.2932C21.0938 30.0326 21.1347 29.7773 21.1945 29.5268L24.9087 28.4434C25.1017 28.3871 25.3037 28.4978 25.36 28.6908L25.4653 29.0512Z" fill="#4E87BB"/>
<path d="M6.17052 10.4312C4.51535 10.4312 1.20501 11.0518 1.20501 15.9484C1.20501 20.8449 0.101562 26.9828 0.101562 26.9828C0.101562 26.9828 5.61879 26.3984 5.61879 19.8104C5.61879 13.6725 6.72224 12.638 6.72224 12.638L6.17052 10.4312Z" fill="#9D6E48"/>
<path d="M5.61879 19.8105C5.61879 13.6726 6.72224 12.6381 6.72224 12.6381L5.61879 10.9829C4.98086 11.0691 2.53921 11.0866 2.86018 15.3967C3.18204 19.7185 4.79121 24.0863 0.101562 26.9829C0.101562 26.9829 5.61879 26.3984 5.61879 19.8105Z" fill="#8D5F3D"/>
<path d="M6.82336 12.1352L6.13694 10.2431C6.03301 9.95669 5.71653 9.80869 5.43012 9.91262C5.1437 10.0166 4.9957 10.333 5.09964 10.6195L5.78605 12.5116C5.88998 12.798 6.20646 12.946 6.49287 12.8421C6.77929 12.7381 6.92729 12.4217 6.82336 12.1352Z" fill="#6AA2DE"/>
<path d="M23.8252 10.4312C25.4803 10.4312 28.7907 11.0518 28.7907 15.9484C28.7907 20.8449 29.8941 26.9828 29.8941 26.9828C29.8941 26.9828 24.3769 26.3984 24.3769 19.8104C24.3769 13.6725 23.2734 12.638 23.2734 12.638L23.8252 10.4312Z" fill="#9D6E48"/>
<path d="M24.3769 19.8105C24.3769 13.6726 23.2734 12.6381 23.2734 12.6381L24.3769 10.9829C25.0148 11.0691 27.4565 11.0866 27.1355 15.3967C26.8136 19.7185 25.2045 24.0863 29.8941 26.9829C29.8942 26.9829 24.3769 26.3984 24.3769 19.8105Z" fill="#8D5F3D"/>
<path d="M23.1739 12.1352L23.8603 10.2431C23.9642 9.95669 24.2807 9.80869 24.5671 9.91262C24.8535 10.0166 25.0015 10.333 24.8976 10.6195L24.2112 12.5116C24.1072 12.798 23.7908 12.946 23.5043 12.8421C23.2179 12.7381 23.0699 12.4217 23.1739 12.1352Z" fill="#6AA2DE"/>
<path d="M22.7245 11.5344V10.4309C22.7245 8.90739 21.4894 6.56885 19.9659 6.56885H10.0349C8.51129 6.56885 7.27626 8.90739 7.27626 10.4309V11.5341C6.36213 11.5341 5.62109 12.2751 5.62109 13.1892C5.62109 14.1034 6.36213 14.8444 7.27626 14.8444V15.3964C7.27626 16.7328 8.07978 17.9381 9.31336 18.4521L12.8783 19.9375C13.5507 20.2177 14.2719 20.3619 15.0003 20.3619C15.7287 20.3619 16.4499 20.2176 17.1223 19.9375L20.6874 18.4521C21.921 17.9381 22.7245 16.7328 22.7245 15.3964V14.8447C23.6386 14.8447 24.3797 14.1037 24.3797 13.1895C24.3797 12.2754 23.6386 11.5344 22.7245 11.5344Z" fill="#FFE1B2"/>
<path d="M11.1338 13.7416C10.8303 13.7416 10.582 13.4933 10.582 13.1899V12.6381C10.582 12.3347 10.8303 12.0864 11.1338 12.0864C11.4372 12.0864 11.6855 12.3347 11.6855 12.6381V13.1899C11.6855 13.4933 11.4372 13.7416 11.1338 13.7416Z" fill="#623F33"/>
<path d="M18.8603 13.7416C18.5569 13.7416 18.3086 13.4933 18.3086 13.1899V12.6381C18.3086 12.3347 18.5569 12.0864 18.8603 12.0864C19.1638 12.0864 19.412 12.3347 19.412 12.6381V13.1899C19.412 13.4933 19.1638 13.7416 18.8603 13.7416Z" fill="#623F33"/>
<path d="M14.997 17.6186C14.0161 17.6186 13.0986 17.3772 12.4797 16.9562C12.2279 16.7849 12.1624 16.4417 12.334 16.1898C12.5051 15.9382 12.8486 15.8727 13.1004 16.0441C13.5342 16.339 14.2432 16.5152 14.997 16.5152C15.7508 16.5152 16.4598 16.339 16.8935 16.0441C17.1459 15.8722 17.4886 15.9379 17.6599 16.1898C17.8315 16.4417 17.7661 16.7849 17.5142 16.9562C16.8955 17.3772 15.9779 17.6186 14.997 17.6186Z" fill="#E4B07B"/>
<path d="M14.5209 6.49951C14.4255 9.48164 7.27626 11.5343 7.27626 11.5343C6.36213 11.5343 5.62109 12.2753 5.62109 13.1894C5.62109 14.1036 6.36213 14.8446 7.27626 14.8446V15.3963C7.27626 16.7327 8.07978 17.938 9.31336 18.452L12.8782 19.9374C13.0527 20.0101 13.2307 20.0727 13.4111 20.127C11.8356 18.9745 10.7869 17.967 10.1725 17.3082C9.72543 16.829 9.48315 16.1965 9.48315 15.541V12.4575C11.0625 11.9063 15.4954 10.0956 15.5521 7.12048C15.5564 6.89503 15.5532 6.68861 15.5436 6.49951H14.5209Z" fill="#FFD7A3"/>
<path d="M17.7561 0.5C15.963 0.5 14.9975 1.05172 14.9975 1.05172C14.9975 1.05172 14.032 0.5 12.2389 0.5C10.4458 0.5 3.64116 3.95206 6.16991 11.952C6.16991 11.952 14.9975 10.385 14.9975 6.56895C14.9975 10.385 23.825 11.952 23.825 11.952C26.3538 3.95206 19.5492 0.5 17.7561 0.5Z" fill="#9D6E48"/>
<path d="M14.9975 1.052V1.05172C14.9975 1.05172 14.0319 0.5 12.2388 0.5C10.4457 0.5 3.6412 3.95206 6.16989 11.952C6.16989 11.952 7.23851 11.7619 8.63126 11.3541C7.07258 4.18054 13.2866 1.05752 14.9975 1.052Z" fill="#8D5F3D"/>
<path d="M14.997 31.9482C15.3017 31.9482 15.5488 31.7012 15.5488 31.3964C15.5488 31.0917 15.3017 30.8447 14.997 30.8447C14.6923 30.8447 14.4453 31.0917 14.4453 31.3964C14.4453 31.7012 14.6923 31.9482 14.997 31.9482Z" fill="#FF8C51"/>
<path d="M10.583 31.9482C10.8877 31.9482 11.1347 31.7012 11.1347 31.3964C11.1347 31.0917 10.8877 30.8447 10.583 30.8447C10.2783 30.8447 10.0312 31.0917 10.0312 31.3964C10.0312 31.7012 10.2783 31.9482 10.583 31.9482Z" fill="#FF8C51"/>
<path d="M19.4111 31.9482C19.7158 31.9482 19.9628 31.7012 19.9628 31.3964C19.9628 31.0917 19.7158 30.8447 19.4111 30.8447C19.1064 30.8447 18.8594 31.0917 18.8594 31.3964C18.8594 31.7012 19.1064 31.9482 19.4111 31.9482Z" fill="#FF8C51"/>
<path d="M17.208 31.9482C17.5127 31.9482 17.7597 31.7012 17.7597 31.3964C17.7597 31.0917 17.5127 30.8447 17.208 30.8447C16.9033 30.8447 16.6562 31.0917 16.6562 31.3964C16.6562 31.7012 16.9033 31.9482 17.208 31.9482Z" fill="#FFC84A"/>
<path d="M12.79 31.9482C13.0947 31.9482 13.3417 31.7012 13.3417 31.3964C13.3417 31.0917 13.0947 30.8447 12.79 30.8447C12.4853 30.8447 12.2383 31.0917 12.2383 31.3964C12.2383 31.7012 12.4853 31.9482 12.79 31.9482Z" fill="#FFC84A"/>
<path d="M16.0986 30.2929C16.4033 30.2929 16.6503 30.0459 16.6503 29.7412C16.6503 29.4365 16.4033 29.1895 16.0986 29.1895C15.7939 29.1895 15.5469 29.4365 15.5469 29.7412C15.5469 30.0459 15.7939 30.2929 16.0986 30.2929Z" fill="#FFC84A"/>
<path d="M11.6884 30.2929C11.9931 30.2929 12.2402 30.0459 12.2402 29.7412C12.2402 29.4365 11.9931 29.1895 11.6884 29.1895C11.3837 29.1895 11.1367 29.4365 11.1367 29.7412C11.1367 30.0459 11.3837 30.2929 11.6884 30.2929Z" fill="#FFC84A"/>
<path d="M20.5166 30.2929C20.8213 30.2929 21.0683 30.0459 21.0683 29.7412C21.0683 29.4365 20.8213 29.1895 20.5166 29.1895C20.2119 29.1895 19.9648 29.4365 19.9648 29.7412C19.9648 30.0459 20.2119 30.2929 20.5166 30.2929Z" fill="#FFC84A"/>
<path d="M9.48141 30.2929C9.78612 30.2929 10.0331 30.0459 10.0331 29.7412C10.0331 29.4365 9.78612 29.1895 9.48141 29.1895C9.1767 29.1895 8.92969 29.4365 8.92969 29.7412C8.92969 30.0459 9.1767 30.2929 9.48141 30.2929Z" fill="#FF8C51"/>
<path d="M18.3095 30.2929C18.6142 30.2929 18.8613 30.0459 18.8613 29.7412C18.8613 29.4365 18.6142 29.1895 18.3095 29.1895C18.0048 29.1895 17.7578 29.4365 17.7578 29.7412C17.7578 30.0459 18.0048 30.2929 18.3095 30.2929Z" fill="#FF8C51"/>
<path d="M13.8955 30.2929C14.2002 30.2929 14.4472 30.0459 14.4472 29.7412C14.4472 29.4365 14.2002 29.1895 13.8955 29.1895C13.5908 29.1895 13.3438 29.4365 13.3438 29.7412C13.3438 30.0459 13.5908 30.2929 13.8955 30.2929Z" fill="#FF8C51"/>
</svg>
