<svg width="24" height="33" viewBox="0 0 24 33" fill="none" xmlns="http://www.w3.org/2000/svg">
<path d="M23.0247 29.6639L22.9746 29.2132C22.9548 29.0349 22.7942 28.9064 22.6159 28.9261L22.5879 28.9293L22.1032 25.0524C21.9978 24.2091 21.4175 23.5013 20.6112 23.2325L17.9184 22.3349C17.5486 22.2115 17.1429 22.29 16.8577 22.5331L16.0645 22.2686C15.6139 22.1184 15.31 21.6968 15.31 21.2218V19.4424L17.6866 18.4521C18.9203 17.9382 19.7238 16.7329 19.7238 15.3965V14.8448C20.6379 14.8448 21.379 14.1038 21.379 13.1896C21.379 12.9136 21.311 12.6535 21.1915 12.4247C21.3117 12.1523 21.379 11.8513 21.379 11.5345C21.379 11.311 21.3359 11.0997 21.2741 10.8965C21.679 10.4964 21.9307 9.9417 21.9307 9.32757C21.9307 9.10412 21.8876 8.89281 21.8259 8.68957C22.2308 8.2895 22.4824 7.73481 22.4824 7.12068C22.4824 6.05923 21.7326 5.17406 20.734 4.96282C20.7887 4.77061 20.8272 4.57178 20.8272 4.36206C20.8272 3.14324 19.8392 2.15517 18.6204 2.15517C18.1626 2.15517 17.7375 2.29462 17.385 2.53324C17.0838 1.67276 16.2733 1.05172 15.31 1.05172C14.7658 1.05172 14.2741 1.25621 13.8893 1.58276C13.5044 0.937034 12.8061 0.5 11.9997 0.5C11.1934 0.5 10.4952 0.937034 10.1102 1.58276C9.72534 1.25621 9.23362 1.05172 8.68941 1.05172C7.7261 1.05172 6.91562 1.67276 6.61445 2.53324C6.26183 2.29462 5.83673 2.15517 5.37907 2.15517C4.16025 2.15517 3.17218 3.14324 3.17218 4.36206C3.17218 4.57178 3.2108 4.77061 3.26542 4.96282C2.2668 5.17406 1.51694 6.05923 1.51694 7.12068C1.51694 7.73481 1.7686 8.2895 2.17349 8.68957C2.11177 8.89281 2.06867 9.10412 2.06867 9.32757C2.06867 9.9417 2.32032 10.4964 2.72522 10.8965C2.66349 11.0997 2.62039 11.311 2.62039 11.5345C2.62039 11.8513 2.68763 12.1523 2.80791 12.4247C2.68839 12.6535 2.62039 12.9136 2.62039 13.1896C2.62039 14.1038 3.36142 14.8448 4.27556 14.8448V15.3965C4.27556 16.7329 5.07907 17.9382 6.31266 18.4522L8.68934 19.4425V21.2219C8.68934 21.6969 8.38541 22.1185 7.93486 22.2687L7.14162 22.5331C6.85645 22.2901 6.45079 22.2116 6.081 22.3349L3.38811 23.2326C2.58184 23.5013 2.00156 24.2092 1.89611 25.0525L1.41149 28.9293L1.38343 28.9262C1.20515 28.9064 1.04453 29.0349 1.02474 29.2133L0.974668 29.664C0.954875 29.8423 1.08336 30.0029 1.26163 30.0227L2.06867 30.1124V31.3965C2.06867 32.0059 2.56273 32.4999 3.17211 32.4999H5.93073H18.0686H20.8272C21.4367 32.4999 21.9307 32.0059 21.9307 31.3965V30.1123L22.7377 30.0226C22.916 30.0028 23.0445 29.8422 23.0247 29.6639Z" fill="#C38762"/>
<path d="M21.8246 8.68957C22.2295 8.2895 22.4811 7.73481 22.4811 7.12068C22.4811 6.05923 21.7312 5.17406 20.7327 4.96282C20.7874 4.77061 20.8259 4.57178 20.8259 4.36206C20.8259 3.14324 19.8379 2.15517 18.619 2.15517C18.1613 2.15517 17.7362 2.29462 17.3837 2.53324C17.0825 1.67276 16.272 1.05172 15.3087 1.05172C14.7645 1.05172 14.2728 1.25621 13.8879 1.58276C13.503 0.937034 12.8048 0.5 11.9984 0.5C11.1921 0.5 10.4939 0.937034 10.1088 1.58276C9.72402 1.25621 9.2323 1.05172 8.68809 1.05172C7.72478 1.05172 6.9143 1.67276 6.61313 2.53324C6.26051 2.29462 5.83541 2.15517 5.37776 2.15517C4.15893 2.15517 3.17086 3.14324 3.17086 4.36206C3.17086 4.57178 3.20948 4.77061 3.2641 4.96282C2.26549 5.17406 1.51562 6.05923 1.51562 7.12068C1.51562 7.73481 1.76728 8.2895 2.17218 8.68957C2.11045 8.89281 2.06735 9.10412 2.06735 9.32757C2.06735 9.9417 2.319 10.4964 2.7239 10.8965C2.66217 11.0997 2.61907 11.311 2.61907 11.5345C2.61907 12.7533 3.60714 13.7414 4.82596 13.7414C4.82617 13.7414 4.82638 13.7414 4.82665 13.7414H19.1701C19.1703 13.7414 19.1706 13.7414 19.1708 13.7414C20.3897 13.7414 21.3777 12.7533 21.3777 11.5345C21.3777 11.311 21.3346 11.0997 21.2729 10.8965C21.6778 10.4964 21.9294 9.9417 21.9294 9.32757C21.9294 9.10412 21.8863 8.89281 21.8246 8.68957Z" fill="#623F33"/>
<path d="M18.0683 32.4998V29.7412H22.689L22.1028 25.0523C21.9974 24.209 21.4171 23.5011 20.6108 23.2324L17.918 22.3347C17.449 22.1784 16.9214 22.3453 16.6565 22.7627C15.6786 24.3037 13.9596 25.3273 11.9994 25.3273C10.0392 25.3273 8.32018 24.3036 7.34218 22.7626C7.07729 22.3453 6.5497 22.1783 6.08074 22.3346L3.38785 23.2323C2.58157 23.501 2.0013 24.2089 1.89585 25.0522L1.37109 29.2503L5.93046 29.7411V32.4997H18.0684V32.4998H18.0683Z" fill="#FFD739"/>
<path d="M15.3103 19.4425L8.68961 17.9712V21.2219C8.68961 21.6191 8.46989 21.9689 8.13672 22.1639C12.7639 22.9738 15.3103 19.4425 15.3103 19.4425Z" fill="#A46D4D"/>
<path d="M19.7245 11.5344V9.87918C19.7245 8.35567 18.4894 6.56885 16.9659 6.56885H7.03488C5.51129 6.56885 4.27626 8.35567 4.27626 9.87918V11.5344C3.36213 11.5344 2.62109 12.2755 2.62109 13.1895C2.62109 14.1037 3.36213 14.8447 4.27626 14.8447V15.3964C4.27626 16.7328 5.07978 17.9381 6.31336 18.4521L9.87825 19.9375C10.5507 20.2177 11.272 20.3619 12.0004 20.3619C12.7288 20.3619 13.45 20.2176 14.1224 19.9375L17.6875 18.4521C18.921 17.9381 19.7245 16.7328 19.7245 15.3964V14.8447C20.6386 14.8447 21.3797 14.1037 21.3797 13.1895C21.3797 12.2754 20.6386 11.5344 19.7245 11.5344Z" fill="#D29771"/>
<path d="M8.13766 13.7411C7.83421 13.7411 7.58594 13.4928 7.58594 13.1894V12.6377C7.58594 12.3342 7.83421 12.0859 8.13766 12.0859C8.44111 12.0859 8.68938 12.3342 8.68938 12.6377V13.1894C8.68938 13.4928 8.44104 13.7411 8.13766 13.7411Z" fill="#623F33"/>
<path d="M15.8603 13.7411C15.5569 13.7411 15.3086 13.4928 15.3086 13.1894V12.6377C15.3086 12.3342 15.5569 12.0859 15.8603 12.0859C16.1638 12.0859 16.412 12.3342 16.412 12.6377V13.1894C16.412 13.4928 16.1638 13.7411 15.8603 13.7411Z" fill="#623F33"/>
<path d="M12.0008 17.6186C11.02 17.6186 10.1024 17.3772 9.48362 16.9562C9.23176 16.7849 9.16631 16.4417 9.33789 16.1898C9.50893 15.9382 9.85244 15.8727 10.1043 16.0441C10.538 16.339 11.2471 16.5152 12.0008 16.5152C12.7546 16.5152 13.4637 16.339 13.8974 16.0441C14.1498 15.8722 14.4925 15.9379 14.6638 16.1898C14.8354 16.4417 14.7699 16.7849 14.5181 16.9562C13.8993 17.3772 12.9817 17.6186 12.0008 17.6186Z" fill="#A46D4D"/>
<path d="M5.93113 30.158V28.9093C5.93113 28.3785 5.73982 27.8655 5.3923 27.4643L2.35652 23.96C2.11155 24.2701 1.94755 24.6448 1.89659 25.0526L1.32031 29.6627C2.19776 29.7154 4.53182 29.9888 5.93113 30.158Z" fill="#FFC33D"/>
<path d="M5.93079 29.4316L1.38349 28.9263C1.20515 28.9065 1.0446 29.035 1.02474 29.2133L0.974668 29.664C0.954875 29.8423 1.08336 30.0029 1.26163 30.0227L5.93079 30.5416V29.4316Z" fill="#FFB440"/>
<path d="M18.0664 30.158V28.9093C18.0664 28.3785 18.2577 27.8655 18.6052 27.4643L21.641 23.96C21.886 24.2701 22.05 24.6448 22.1009 25.0526L22.6772 29.6627C21.7998 29.7154 19.4656 29.9888 18.0664 30.158Z" fill="#FFC33D"/>
<path d="M18.0664 29.4316L22.6137 28.9263C22.792 28.9065 22.9526 29.035 22.9725 29.2133L23.0225 29.664C23.0423 29.8423 22.9138 30.0029 22.7356 30.0227L18.0664 30.5416V29.4316Z" fill="#FFB440"/>
<path d="M4.27626 6.6377V11.5342C3.36213 11.5342 2.62109 12.2753 2.62109 13.1894C2.62109 14.1035 3.36213 14.8446 4.27626 14.8446V15.3963C4.27626 16.7327 5.07978 17.938 6.31336 18.452L9.87818 19.9374C10.0527 20.0101 10.2307 20.0727 10.4111 20.127C8.83563 18.9745 7.78694 17.967 7.17246 17.3082C6.72543 16.8289 6.48315 16.1964 6.48315 15.541V9.31169C7.07039 9.24624 7.5946 8.97493 7.98543 8.57286C8.28639 8.70252 8.61743 8.77562 8.96591 8.77562C9.72432 8.77562 10.3948 8.42831 10.8502 7.89245C11.186 8.09886 11.5774 8.2239 12.0004 8.2239C12.5669 8.2239 13.0782 8.00417 13.4691 7.65328C13.8974 8.00445 14.4378 8.2239 15.0349 8.2239C16.0889 8.2239 16.983 7.56493 17.3414 6.6377H4.27626Z" fill="#C38762"/>
<path d="M19.7245 7.12081C19.6886 7.12081 19.6552 7.12909 19.6199 7.13137C19.6839 6.95509 19.7245 6.76744 19.7245 6.56909C19.7245 5.65496 18.9835 4.91392 18.0693 4.91392C17.8686 4.91392 17.6786 4.9551 17.5005 5.02054C17.412 3.72986 16.3481 2.70703 15.0349 2.70703C13.9043 2.70703 12.961 3.46737 12.661 4.50117C12.4584 4.41268 12.2356 4.3622 12.0004 4.3622C11.3811 4.3622 10.8478 4.70627 10.564 5.20978C10.2166 4.69841 9.63073 4.3622 8.96598 4.3622C8.17591 4.3622 7.49888 4.83792 7.19984 5.51737C6.89626 5.15172 6.44385 4.91392 5.9315 4.91392C5.31654 4.91392 4.78033 5.24951 4.49495 5.7473C4.45702 5.74351 4.41861 5.74151 4.37971 5.74151C3.75123 5.74151 3.24178 6.25095 3.24178 6.87944C3.24178 7.06482 3.28702 7.2393 3.36571 7.39399C2.91723 7.69005 2.62109 8.19833 2.62109 8.77598C2.62109 9.69012 3.36213 10.4312 4.27626 10.4312C5.1904 10.4312 5.93143 9.69012 5.93143 8.77598C5.93143 8.57764 5.89081 8.38998 5.82681 8.21371C5.86212 8.21598 5.89564 8.22426 5.93143 8.22426C6.55067 8.22426 7.08405 7.88019 7.36784 7.37668C7.71522 7.88805 8.30122 8.22426 8.96591 8.22426C9.75598 8.22426 10.433 7.74854 10.732 7.06909C11.0356 7.43475 11.4879 7.67254 12.0004 7.67254C12.5496 7.67254 13.0326 7.40206 13.3337 6.99026C13.7785 7.41054 14.3747 7.67254 15.0349 7.67254C15.5981 7.67254 16.1116 7.47778 16.5282 7.16171C16.7671 7.78212 17.3647 8.22426 18.0693 8.22426C18.1052 8.22426 18.1386 8.21598 18.174 8.21371C18.11 8.38998 18.0693 8.57764 18.0693 8.77598C18.0693 9.69012 18.8104 10.4312 19.7245 10.4312C20.6386 10.4312 21.3797 9.69012 21.3797 8.77598C21.3797 7.86185 20.6386 7.12081 19.7245 7.12081Z" fill="#623F33"/>
</svg>
