<svg width="22" height="33" viewBox="0 0 22 33" fill="none" xmlns="http://www.w3.org/2000/svg">
<path d="M21.4387 29.0511L21.3335 28.6906C21.2827 28.5164 21.113 28.4097 20.9385 28.4319L20.5707 25.6731C20.4499 24.7668 19.8878 23.9793 19.07 23.5704L17.8816 22.9762C17.7045 22.8876 17.5016 22.9662 17.415 23.1341L15.063 22.2687C14.6124 22.1185 14.3085 21.6968 14.3085 21.2219V19.4424L16.6852 18.4522C17.9188 17.9382 18.7223 16.7329 18.7223 15.3965V14.8448C19.6365 14.8448 20.3775 14.1037 20.3775 13.1896C20.3775 12.2755 19.6365 11.5344 18.7223 11.5344V10.431C18.7223 8.9074 17.4872 7.67236 15.9637 7.67236H6.03268C4.50917 7.67236 3.27406 8.9074 3.27406 10.431V15.3965C3.27406 16.7328 4.07758 17.9382 5.31116 18.4522L7.68785 19.4425V21.2219C7.68785 21.6968 7.38392 22.1185 6.93337 22.2687L4.58158 23.134C4.49592 22.9659 4.29337 22.8869 4.11661 22.9753L3.03289 23.5171C2.10806 23.9795 1.54654 24.7668 1.42572 25.6731L1.05785 28.4319C0.883372 28.4097 0.713786 28.5164 0.662889 28.6906L0.557648 29.0511C0.501303 29.2441 0.61213 29.4462 0.805096 29.5025L1.61889 29.7399V31.3965C1.61889 32.0059 2.11296 32.4999 2.72234 32.4999H4.92923H17.0672H19.2741C19.8834 32.4999 20.3775 32.0059 20.3775 31.3965V29.7399L21.1912 29.5025C21.3843 29.4462 21.4951 29.2441 21.4387 29.0511Z" fill="#C38762"/>
<path d="M19.8288 3.81041C19.369 2.93683 17.9897 1.60352 14.8633 1.60352V12.638H19.8288C19.8288 12.638 20.6855 5.438 19.8288 3.81041Z" fill="#6E4439"/>
<path d="M21.0113 28.9782L20.5706 25.673C20.4498 24.7667 19.8877 23.9791 19.0699 23.5702L17.8815 22.976C17.6802 22.8753 17.4452 22.9907 17.3861 23.2079C16.6213 26.019 14.0515 28.0862 10.998 28.0862C7.94387 28.0862 5.37353 26.018 4.60939 23.2058C4.55063 22.9896 4.31684 22.8749 4.11656 22.9751L3.03284 23.5169C2.10801 23.9793 1.54649 24.7667 1.42567 25.6729L0.976562 29.0409C2.43408 29.5429 4.92911 30.2929 4.92911 30.2929V32.4998H17.067V30.2929L21.0113 28.9782Z" fill="#FF6473"/>
<path d="M14.3064 19.4425L7.68571 17.9712V21.2219C7.68571 21.619 7.46598 21.9688 7.13281 22.1639C11.76 22.9738 14.3064 19.4425 14.3064 19.4425Z" fill="#A46D4D"/>
<path d="M18.7217 11.5344V10.431C18.7217 8.9074 17.4866 7.67236 15.9631 7.67236H6.03206C4.50854 7.67236 3.27344 8.9074 3.27344 10.431V15.3965C3.27344 16.7328 4.07695 17.9382 5.31054 18.4522L8.87544 19.9376C9.54785 20.2178 10.2691 20.362 10.9975 20.362C11.7259 20.362 12.4471 20.2178 13.1195 19.9376L16.6846 18.4522C17.9182 17.9382 18.7217 16.7329 18.7217 15.3965V14.8448C19.6359 14.8448 20.3769 14.1037 20.3769 13.1896C20.3769 12.2755 19.6359 11.5344 18.7217 11.5344Z" fill="#D29771"/>
<path d="M14.8603 13.7416C14.5569 13.7416 14.3086 13.4933 14.3086 13.1899V12.6382C14.3086 12.3347 14.5569 12.0864 14.8603 12.0864C15.1638 12.0864 15.412 12.3347 15.412 12.6382V13.1899C15.412 13.4933 15.1638 13.7416 14.8603 13.7416Z" fill="#623F33"/>
<path d="M10.997 17.6186C10.0161 17.6186 9.09857 17.3772 8.47974 16.9562C8.22788 16.7849 8.16236 16.4417 8.33402 16.1898C8.50505 15.9382 8.84857 15.8727 9.10043 16.0441C9.53416 16.339 10.2432 16.5152 10.997 16.5152C11.7508 16.5152 12.4598 16.339 12.8935 16.0441C13.1459 15.8722 13.4886 15.9379 13.6599 16.1898C13.8315 16.4417 13.7661 16.7849 13.5142 16.9562C12.8955 17.3772 11.9779 17.6186 10.997 17.6186Z" fill="#A46D4D"/>
<path d="M3.27344 15.3966C3.27344 16.7331 4.07695 17.9384 5.31054 18.4524L8.87537 19.9377C9.04985 20.0104 9.22792 20.0731 9.40826 20.1273C7.83282 18.9748 6.78413 17.9673 6.16964 17.3086C5.72261 16.8293 5.48033 16.1968 5.48033 15.5413C5.48033 14.2472 7.22751 11.9484 9.89413 10.9828C12.4434 10.0598 14.8236 9.34629 15.8317 7.87939H10.7907C6.63902 7.87939 3.27344 11.245 3.27344 15.3966Z" fill="#C38762"/>
<path d="M4.91553 30.1246C4.8818 29.4685 4.66277 28.8346 4.26711 28.307L1.67697 24.8535C1.55194 25.111 1.46407 25.3851 1.42559 25.6733L0.988281 28.9534L4.91553 30.1246Z" fill="#F05467"/>
<path d="M0.557648 29.0512C0.501303 29.2443 0.61213 29.4464 0.805096 29.5027L4.92923 30.7057V30.2932C4.92923 30.0326 4.88827 29.7773 4.82848 29.5268L1.11427 28.4434C0.921303 28.3871 0.719234 28.4978 0.662958 28.6908L0.557648 29.0512Z" fill="#BD445A"/>
<path d="M17.082 30.1246C17.1158 29.4685 17.3348 28.8346 17.7304 28.307L20.3206 24.8535C20.4456 25.111 20.5335 25.3851 20.572 25.6733L21.0093 28.9534L17.082 30.1246Z" fill="#F05467"/>
<path d="M21.438 29.0512C21.4943 29.2443 21.3835 29.4464 21.1905 29.5027L17.0664 30.7057V30.2932C17.0664 30.0326 17.1074 29.7773 17.1672 29.5268L20.8814 28.4434C21.0743 28.3871 21.2764 28.4978 21.3327 28.6908L21.438 29.0512Z" fill="#BD445A"/>
<path d="M9.89357 0.5C-2.52022 0.5 2.16943 20.3621 2.16943 20.3621L4.37633 20.9138C4.42902 17.2249 4.83916 13.049 6.58322 11.5345C9.20391 9.25862 15.3816 9.44565 16.5143 7.12069C17.3878 5.32759 16.5258 2.36207 15.9625 1.60345C15.9625 1.60345 15.1809 0.5 9.89357 0.5Z" fill="#6E4439"/>
<path d="M7.13495 8.77586C11.7787 6.52297 14.3074 6.06317 13.7556 1.05172C13.7448 0.953586 13.7265 0.861931 13.7103 0.768483C12.8185 0.614138 11.5903 0.5 9.89357 0.5C-2.52023 0.5 2.16943 20.3621 2.16943 20.3621L3.2624 20.6353C3.18681 16.9684 2.8346 10.8622 7.13495 8.77586Z" fill="#5E342E"/>
<path d="M16.7932 3.78623C16.7932 4.52899 15.2946 5.13106 14.5519 5.13106C13.8091 5.13106 13.207 4.52899 13.207 3.78623C13.207 3.04348 13.8091 2.44141 14.5519 2.44141C15.2946 2.44141 16.7932 3.04354 16.7932 3.78623Z" fill="#BD445A"/>
<path d="M16.7891 3.78623C16.7891 3.04348 18.2877 2.44141 19.0304 2.44141C19.7732 2.44141 20.3753 3.04348 20.3753 3.78623C20.3753 4.52899 19.7732 5.13106 19.0304 5.13106C18.2877 5.13106 16.7891 4.52899 16.7891 3.78623Z" fill="#BD445A"/>
<path d="M16.79 3.78614C17.4332 4.15752 17.2053 5.75642 16.8339 6.39966C16.4625 7.0429 15.6401 7.26325 14.9969 6.89194C14.3536 6.52056 14.1333 5.69807 14.5046 5.05483C14.876 4.41159 16.1468 3.41477 16.79 3.78614Z" fill="#FF6473"/>
<path d="M16.7922 3.78613C16.149 3.41475 16.3769 1.81585 16.7482 1.17261C17.1197 0.529437 17.9422 0.309023 18.5853 0.680402C19.2286 1.05178 19.4489 1.87426 19.0776 2.51751C18.7062 3.16068 17.4355 4.15751 16.7922 3.78613Z" fill="#FF6473"/>
<path d="M16.7922 3.78614C16.149 4.15752 16.3769 5.75642 16.7482 6.39966C17.1196 7.0429 17.9421 7.26325 18.5853 6.89187C19.2286 6.52049 19.4489 5.69801 19.0776 5.05477C18.7062 4.41159 17.4355 3.41477 16.7922 3.78614Z" fill="#F05467"/>
<path d="M16.79 3.78614C17.4332 3.41476 17.2053 1.81587 16.8339 1.17262C16.4625 0.529383 15.6401 0.309038 14.9969 0.680417C14.3536 1.0518 14.1333 1.87428 14.5046 2.51752C14.876 3.16069 16.1468 4.15752 16.79 3.78614Z" fill="#F05467"/>
<path d="M16.7911 4.68275C17.2862 4.68275 17.6876 4.28135 17.6876 3.7862C17.6876 3.29105 17.2862 2.88965 16.7911 2.88965C16.2959 2.88965 15.8945 3.29105 15.8945 3.7862C15.8945 4.28135 16.2959 4.68275 16.7911 4.68275Z" fill="white"/>
<path d="M10.9985 25.3275C8.78457 25.3275 6.81988 24.175 6.22077 22.5258C6.11677 22.2391 6.2647 21.9229 6.55105 21.8183C6.83877 21.717 7.15395 21.8625 7.25795 22.1486C7.70167 23.3706 9.23988 24.224 10.9985 24.224C12.7482 24.224 14.2846 23.376 14.7345 22.1615C14.8406 21.8755 15.159 21.7294 15.4433 21.8361C15.7291 21.9417 15.8748 22.2591 15.769 22.5451C15.1623 24.1831 13.2006 25.3275 10.9985 25.3275Z" fill="#6E4439"/>
<path d="M10.998 26.9828C11.6074 26.9828 12.1014 26.4887 12.1014 25.8793C12.1014 25.2699 11.6074 24.7759 10.998 24.7759C10.3886 24.7759 9.89453 25.2699 9.89453 25.8793C9.89453 26.4887 10.3886 26.9828 10.998 26.9828Z" fill="#FF6473"/>
<path d="M10.4463 25.8793C10.4463 25.3657 10.7987 24.9379 11.2738 24.8149C11.1852 24.7919 11.0938 24.7759 10.998 24.7759C10.3886 24.7759 9.89453 25.2699 9.89453 25.8793C9.89453 26.4887 10.3886 26.9828 10.998 26.9828C11.0938 26.9828 11.1852 26.9667 11.2738 26.9437C10.7987 26.8207 10.4463 26.3929 10.4463 25.8793Z" fill="#F05467"/>
<path d="M11.2759 25.8794C11.4282 25.8794 11.5517 25.7559 11.5517 25.6035C11.5517 25.4511 11.4282 25.3276 11.2759 25.3276C11.1235 25.3276 11 25.4511 11 25.6035C11 25.7559 11.1235 25.8794 11.2759 25.8794Z" fill="#FFA0B5"/>
<path d="M7.13376 13.7416C6.83031 13.7416 6.58203 13.4933 6.58203 13.1899V12.6382C6.58203 12.3347 6.83031 12.0864 7.13376 12.0864C7.4372 12.0864 7.68548 12.3347 7.68548 12.6382V13.1899C7.68548 13.4933 7.4372 13.7416 7.13376 13.7416Z" fill="#623F33"/>
</svg>
