<svg width="50" height="72" viewBox="0 0 50 72" fill="none" xmlns="http://www.w3.org/2000/svg">
<path d="M49.0021 67.3652L47.4503 54.9496C47.2159 53.0756 45.9264 51.5026 44.1349 50.9053L38.1507 48.9106C37.3289 48.6365 36.4274 48.8111 35.7937 49.351L34.031 48.7634C33.0298 48.4296 32.3544 47.4926 32.3544 46.4372V42.4828L37.6357 40.2822C40.377 39.1403 42.1626 36.4619 42.1626 33.4921V32.266C44.194 32.266 45.8408 30.6193 45.8408 28.5878C45.8408 27.6715 45.505 26.8341 44.9506 26.1901C45.9914 22.402 48.9166 10.4191 45.8408 5.29288L47.0668 0.388672C47.0668 0.388672 34.1933 0.695185 27.45 2.84077L29.9021 0.388672C29.9021 0.388672 12.6608 0.388672 9.0603 6.51785L9.05923 6.51893C9.05923 6.51893 2.92897 6.46789 2.92897 13.8752C2.92897 16.5863 4.44115 23.356 5.09035 26.138C4.50904 26.7885 4.15502 27.6467 4.15502 28.5878C4.15502 30.6193 5.80176 32.266 7.83318 32.266V33.4921C7.83318 36.4617 9.61876 39.1402 12.3601 40.2825L17.6416 42.4831V46.4373C17.6416 47.4928 16.9662 48.4298 15.965 48.7636L14.2022 49.3512C13.5685 48.8113 12.667 48.6367 11.8453 48.9107L5.86107 50.9055C4.06935 51.5027 2.77985 53.0758 2.54568 54.9498L0.993803 67.3654C0.719321 69.5606 2.43104 71.4996 4.64345 71.4996H4.67793H45.3178H45.3523C47.5647 71.4996 49.2766 69.5606 49.0021 67.3652Z" fill="#FFD7A3"/>
<path d="M32.3592 42.4829L17.6466 42.4831V46.4372C17.6466 47.3198 17.1584 48.0971 16.418 48.5306C26.7006 50.3302 32.3592 42.4829 32.3592 42.4829Z" fill="#FDC88E"/>
<path d="M5.38179 27.3618C5.38179 27.3618 2.92969 17.3275 2.92969 13.8752C2.92969 6.46789 9.05994 6.51893 9.05994 6.51893L9.06102 6.51785C12.6615 0.388672 29.9028 0.388672 29.9028 0.388672L27.4507 2.84077C34.194 0.695185 47.0675 0.388672 47.0675 0.388672L45.8415 5.29288C49.5196 11.4231 44.6154 27.3618 44.6154 27.3618H5.38179Z" fill="#734A3E"/>
<path d="M29.9028 0.388672C29.9028 0.388672 12.6615 0.388672 9.06102 6.51785L9.05994 6.51893C9.05994 6.51893 2.92969 6.46789 2.92969 13.8752C2.92969 17.3275 5.38179 27.3618 5.38179 27.3618C5.38179 27.3618 30.8735 15.9698 47.0675 0.388672C47.0675 0.388672 34.194 0.695185 27.4507 2.84077L29.9028 0.388672Z" fill="#623F33"/>
<path d="M42.1599 24.91V22.4579C42.1599 19.0723 39.4153 16.3276 36.0297 16.3276H13.9608C10.5752 16.3276 7.8305 19.0723 7.8305 22.4579V24.91C5.79908 24.91 4.15234 26.5567 4.15234 28.5881C4.15234 30.6196 5.79908 32.2663 7.8305 32.2663V33.4924C7.8305 36.462 9.61609 39.1405 12.3574 40.2828L20.2794 43.5837C21.7736 44.2064 23.3764 44.5268 24.9951 44.5268C26.6138 44.5268 28.2164 44.2062 29.7106 43.5837L37.633 40.2827C40.3743 39.1406 42.1599 36.4622 42.1599 33.4924V32.2663C44.1913 32.2663 45.8381 30.6196 45.8381 28.5881C45.8381 26.5567 44.1913 24.91 42.1599 24.91Z" fill="#FFE1B2"/>
<path d="M16.4136 29.8139C15.7392 29.8139 15.1875 29.2622 15.1875 28.5878V27.3618C15.1875 26.6875 15.7392 26.1357 16.4136 26.1357C17.0879 26.1357 17.6396 26.6875 17.6396 27.3618V28.5878C17.6396 29.2622 17.0879 29.8139 16.4136 29.8139Z" fill="#623F33"/>
<path d="M33.5815 29.8139C32.9072 29.8139 32.3555 29.2622 32.3555 28.5878V27.3618C32.3555 26.6875 32.9072 26.1357 33.5815 26.1357C34.2558 26.1357 34.8076 26.6875 34.8076 27.3618V28.5878C34.8076 29.2622 34.2558 29.8139 33.5815 29.8139Z" fill="#623F33"/>
<path d="M24.9976 38.4302C22.8179 38.4302 20.7789 37.8938 19.4038 36.9582C18.8441 36.5775 18.6985 35.8147 19.0799 35.255C19.46 34.696 20.2234 34.5504 20.7831 34.9312C21.7469 35.5867 23.3225 35.9783 24.9976 35.9783C26.6727 35.9783 28.2483 35.5867 29.2122 34.9312C29.7731 34.5493 30.5346 34.6954 30.9153 35.255C31.2966 35.8147 31.1512 36.5775 30.5915 36.9582C29.2165 37.8938 27.1774 38.4302 24.9976 38.4302Z" fill="#E4B07B"/>
<path d="M49.0021 67.3653L47.4503 54.9497C47.2161 53.0757 45.9264 51.5026 44.1349 50.9054L38.1507 48.9106C37.1085 48.5632 35.9361 48.9342 35.3475 49.8617C33.174 53.2861 29.3541 55.5609 24.9979 55.5609C20.6417 55.5609 16.8218 53.2859 14.6485 49.8617C14.0598 48.9342 12.8874 48.5632 11.8453 48.9106L5.86107 50.9054C4.06935 51.5026 2.77985 53.0757 2.54567 54.9497L0.993801 67.3653C0.719318 69.5605 2.43119 71.4997 4.6436 71.4997H45.3525C47.5647 71.4997 49.2766 69.5605 49.0021 67.3653Z" fill="#00BEA4"/>
<path d="M3.56774 52.5215C3.02338 53.2107 2.65893 54.0433 2.54568 54.9495L0.993801 67.3651C0.719318 69.5605 2.43119 71.4995 4.6436 71.4995H11.5113V63.5199C11.5113 62.3403 11.0862 61.2004 10.3139 60.3088L3.56774 52.5215Z" fill="#00AB9A"/>
<path d="M46.428 52.5215C46.9723 53.2107 47.3368 54.0433 47.45 54.9495L49.0019 67.3651C49.2764 69.5605 47.5645 71.4995 45.3521 71.4995H38.4844V63.5199C38.4844 62.3403 38.9095 61.2004 39.6818 60.3088L46.428 52.5215Z" fill="#00AB9A"/>
<path d="M14.2667 37.7411C13.2732 36.6759 12.7349 35.2704 12.7349 33.8139V19.9197C16.6372 19.6271 28.9408 18.563 36.0298 16.3276H13.9608C13.5387 16.3276 13.13 16.3768 12.7347 16.4627V16.4512C9.9367 17.0193 7.8305 19.4922 7.8305 22.4579V24.91C5.79908 24.91 4.15234 26.5567 4.15234 28.5881C4.15234 30.6196 5.79908 32.2663 7.8305 32.2663V33.4923C7.8305 36.4622 9.61609 39.1406 12.3574 40.2828L20.2792 43.5837C20.6669 43.7452 21.0627 43.8844 21.4634 44.005C17.9624 41.4438 15.632 39.2048 14.2667 37.7411Z" fill="#FFD7A3"/>
</svg>
