<svg width="22" height="33" viewBox="0 0 22 33" fill="none" xmlns="http://www.w3.org/2000/svg">
<path d="M21.8003 30.6395L21.0588 24.7074C20.9798 24.0749 20.5445 23.544 19.9398 23.3425L16.5818 22.2231C16.2971 22.1282 15.9976 22.2784 15.8937 22.5454L15.0633 22.2687C14.6127 22.1185 14.3088 21.6968 14.3088 21.2218V19.4424L16.6855 18.4521C17.919 17.9382 18.7225 16.7329 18.7225 15.3965V14.8448C19.6367 14.8448 20.3777 14.1037 20.3777 13.1896C20.3777 12.7534 20.2087 12.3568 19.9329 12.0612C20.211 10.486 20.8997 6.04253 20.3777 3.25861C20.0674 1.60344 19.2743 0.5 19.2743 0.5C19.2743 0.5 15.1364 0.63793 12.1019 1.60344L11.5502 0.5C11.5502 0.5 5.44674 0.5 3.82654 3.25813L3.82606 3.25861C3.82606 3.25861 1.06745 3.23564 1.06745 6.56894C1.06745 7.78893 1.74793 10.8353 2.04007 12.0872C1.77848 12.3799 1.61917 12.7661 1.61917 13.1896C1.61917 14.1037 2.3602 14.8448 3.27434 14.8448V15.3965C3.27434 16.7329 4.07785 17.9382 5.31143 18.4522L7.68811 19.4425V21.2218C7.68811 21.6968 7.38418 22.1185 6.93363 22.2687L6.10329 22.5454C5.99929 22.2785 5.69984 22.1282 5.41515 22.2231L2.0571 23.3425C1.45241 23.544 1.01717 24.0749 0.938139 24.7074L0.196625 30.6395C0.0731086 31.6273 0.843381 32.4999 1.83896 32.4999H20.158C21.1536 32.4999 21.9238 31.6273 21.8003 30.6395Z" fill="#F6B47B"/>
<path d="M5.75781 32.5H16.2405V22.3253C16.0048 22.3963 15.7947 22.5452 15.6564 22.7631C14.6784 24.304 12.9594 25.3277 10.9992 25.3277C9.0389 25.3277 7.31994 24.3039 6.34195 22.763C6.20367 22.5451 5.99354 22.3962 5.75781 22.3252V32.5Z" fill="#9BCE7A"/>
<path d="M7.68696 19.3966V21.2219C7.68696 21.6145 7.47889 21.9703 7.15234 22.1668C11.5491 22.9265 14.0622 19.6978 14.2905 19.3965H7.68696V19.3966Z" fill="#E2A071"/>
<path d="M2.17188 12.6379L19.2752 0.5C19.2752 0.5 20.0683 1.60344 20.3787 3.25861C21.0218 6.68859 19.827 12.6379 19.827 12.6379H2.17188Z" fill="#6E4439"/>
<path d="M11.5491 0.5C11.5491 0.5 5.4457 0.5 3.8255 3.25813L3.82502 3.25861C3.82502 3.25861 1.06641 3.23564 1.06641 6.56894C1.06641 8.12245 2.16985 12.6379 2.16985 12.6379C2.16985 12.6379 13.917 7.41949 19.2732 0.5C19.2732 0.5 15.1353 0.63793 12.1008 1.60344L11.5491 0.5Z" fill="#5E342E"/>
<path d="M18.7206 11.5344V10.431C18.7206 8.90739 17.4855 7.67236 15.962 7.67236H6.03096C4.50745 7.67236 3.27235 8.90746 3.27235 10.431V11.5344C2.35822 11.5344 1.61719 12.2754 1.61719 13.1896C1.61719 14.1037 2.35822 14.8447 3.27235 14.8447V15.3965C3.27235 16.7329 4.07587 17.9382 5.30945 18.4522L8.87433 19.9376C9.54674 20.2178 10.268 20.362 10.9964 20.362C11.7248 20.362 12.446 20.2178 13.1184 19.9376L16.6835 18.4521C17.917 17.9382 18.7206 16.7329 18.7206 15.3965V14.8447C19.6347 14.8447 20.3757 14.1037 20.3757 13.1896C20.3757 12.2754 19.6347 11.5344 18.7206 11.5344Z" fill="#FDC88E"/>
<path d="M7.13375 13.7411C6.83031 13.7411 6.58203 13.4928 6.58203 13.1894V12.6377C6.58203 12.3342 6.83031 12.0859 7.13375 12.0859C7.4372 12.0859 7.68547 12.3342 7.68547 12.6377V13.1894C7.68547 13.4928 7.4372 13.7411 7.13375 13.7411Z" fill="#623F33"/>
<path d="M14.8603 13.7411C14.5569 13.7411 14.3086 13.4928 14.3086 13.1894V12.6377C14.3086 12.3342 14.5569 12.0859 14.8603 12.0859C15.1638 12.0859 15.412 12.3342 15.412 12.6377V13.1894C15.412 13.4928 15.1638 13.7411 14.8603 13.7411Z" fill="#623F33"/>
<path d="M10.997 17.6186C10.0161 17.6186 9.09857 17.3772 8.47974 16.9562C8.22788 16.7849 8.16236 16.4417 8.33402 16.1898C8.50505 15.9382 8.84857 15.8727 9.10043 16.0441C9.53416 16.339 10.2432 16.5152 10.997 16.5152C11.7508 16.5152 12.4598 16.339 12.8935 16.0441C13.1459 15.8722 13.4886 15.9379 13.6599 16.1898C13.8315 16.4417 13.7661 16.7849 13.5142 16.9562C12.8955 17.3772 11.9779 17.6186 10.997 17.6186Z" fill="#E2A071"/>
<path d="M15.962 9.32753V7.67236H6.03096C5.84144 7.67236 5.65717 7.69243 5.47924 7.72988V7.72802C4.22014 7.98367 3.27235 9.0965 3.27235 10.431V11.5345C2.35822 11.5345 1.61719 12.2755 1.61719 13.1897C1.61719 14.1038 2.35822 14.8448 3.27235 14.8448V15.3965C3.27235 16.7329 4.07587 17.9382 5.30945 18.4522L8.87426 19.9376C9.04874 20.0103 9.22681 20.0729 9.40715 20.1272C7.83171 18.9747 6.78303 17.9672 6.16855 17.3085C5.72151 16.8292 5.47924 16.1967 5.47924 15.5412V9.8258C7.21785 9.02208 10.923 7.86464 15.962 9.32753Z" fill="#F6B47B"/>
<path d="M16.9181 22.3347C16.4491 22.1784 15.9215 22.3453 15.6566 22.7627C14.6786 24.3037 12.9596 25.3273 10.9993 25.3273C9.03908 25.3273 7.32012 24.3036 6.34213 22.7626C6.07723 22.3453 5.54965 22.1783 5.08069 22.3346L4.90234 22.3941C5.9091 24.7666 8.25977 26.4307 10.9993 26.4307C13.7389 26.4307 16.0897 24.7665 17.0963 22.3942L16.9181 22.3347Z" fill="#8ABE69"/>
<path d="M7.68818 32.4997L6.1346 22.6603C6.08143 22.3235 5.7386 22.1151 5.41515 22.2229L2.0571 23.3423C1.45241 23.5439 1.01717 24.0748 0.938138 24.7072L0.196624 30.6393C0.0731076 31.6271 0.843449 32.4998 1.83903 32.4998L7.68818 32.4997Z" fill="#43A0C5"/>
<path d="M14.3086 32.4997L15.8622 22.6603C15.9153 22.3235 16.2582 22.1151 16.5816 22.2229L19.9397 23.3423C20.5444 23.5439 20.9796 24.0748 21.0586 24.7072L21.8002 30.6393C21.9237 31.6271 21.1533 32.4998 20.1577 32.4998L14.3086 32.4997Z" fill="#43A0C5"/>
<path d="M20.725 23.9048C20.9015 24.1342 21.0205 24.4086 21.0579 24.7073L21.7994 30.6393C21.9229 31.6272 21.1526 32.4998 20.157 32.4998H17.0664V29.3298C17.0664 28.5279 17.3574 27.7534 17.8854 27.1499L20.725 23.9048Z" fill="#2C8CB3"/>
<path d="M21.7558 30.2647C20.6703 30.126 19.8281 29.2091 19.8281 28.0859C19.8281 27.153 20.409 26.3595 21.2272 26.0366L21.7558 30.2647Z" fill="#FFC84A"/>
<path d="M11.9609 7.53467C13.6488 7.83639 15.5185 8.67418 16.5136 10.4312C16.5136 10.4312 16.6781 8.82101 16.2856 7.53467H11.9609Z" fill="#6E4439"/>
<path d="M1.27103 23.9048C1.09448 24.1342 0.975518 24.4086 0.938139 24.7073L0.196624 30.6393C0.0731075 31.6272 0.843449 32.4998 1.83903 32.4998H4.92957V29.3298C4.92957 28.5279 4.63854 27.7534 4.11054 27.1499L1.27103 23.9048Z" fill="#2C8CB3"/>
</svg>
