<svg width="32" height="33" viewBox="0 0 32 33" fill="none" xmlns="http://www.w3.org/2000/svg">
<g clip-path="url(#clip0_24_10978)">
<path d="M26.8004 30.6395L26.102 25.0524C25.9966 24.2091 25.4163 23.5013 24.6101 23.2325L21.9172 22.3349C21.5474 22.2115 21.1418 22.2901 20.8566 22.5331L20.0634 22.2686C19.6128 22.1184 19.3089 21.6968 19.3089 21.2218V19.4424L21.6855 18.4521C22.9191 17.9382 23.7226 16.7329 23.7226 15.3965V14.8448C24.6367 14.8448 25.3778 14.1038 25.3778 13.1896C25.3778 12.7773 25.2266 12.4005 24.9772 12.1107C25.4455 10.406 26.7619 5.01371 25.3778 2.70689L25.9295 0.5C25.9295 0.5 20.1364 0.637931 17.1019 1.60345L18.2054 0.5C18.2054 0.5 10.4468 0.5 8.82655 3.25813L8.82607 3.25862C8.82607 3.25862 6.06745 3.23565 6.06745 6.56895C6.06745 7.78895 6.74793 10.8353 7.04007 12.0872C6.77848 12.3799 6.61917 12.7661 6.61917 13.1896C6.61917 14.1038 7.36021 14.8448 8.27434 14.8448V15.3965C8.27434 16.7329 9.07786 17.9382 10.3114 18.4522L12.6881 19.4425V21.2219C12.6881 21.6969 12.3842 22.1185 11.9336 22.2687L11.1404 22.5331C10.8552 22.2902 10.4496 22.2116 10.0798 22.3349L7.3869 23.2326C6.58062 23.5013 6.00035 24.2092 5.89497 25.0525L5.19663 30.6395C5.07311 31.6274 5.84338 32.4999 6.83897 32.4999H6.85448H25.1424H25.158C26.1535 32.4999 26.9239 31.6274 26.8004 30.6395Z" fill="#FFD7A3"/>
<path d="M19.3103 19.4424L12.6896 19.4425V21.2218C12.6896 21.619 12.4699 21.9688 12.1367 22.1638C16.7639 22.9737 19.3103 19.4424 19.3103 19.4424Z" fill="#FDC88E"/>
<path d="M7.16985 12.6379C7.16985 12.6379 6.06641 8.12247 6.06641 6.56895C6.06641 3.23565 8.82502 3.25861 8.82502 3.25861L8.8255 3.25813C10.4457 0.5 18.2043 0.5 18.2043 0.5L17.1009 1.60345C20.1353 0.637931 25.9284 0.5 25.9284 0.5L25.3767 2.70689C27.0319 5.46551 24.825 12.6379 24.825 12.6379H7.16985Z" fill="#734A3E"/>
<path d="M18.2043 0.5C18.2043 0.5 10.4457 0.5 8.8255 3.25813L8.82502 3.25861C8.82502 3.25861 6.06641 3.23565 6.06641 6.56895C6.06641 8.12247 7.16985 12.6379 7.16985 12.6379C7.16985 12.6379 18.6411 7.5115 25.9284 0.5C25.9284 0.5 20.1353 0.637931 17.1009 1.60345L18.2043 0.5Z" fill="#623F33"/>
<path d="M23.7206 11.5344V10.431C23.7206 8.90746 22.4855 7.67236 20.962 7.67236H11.031C9.50746 7.67236 8.27236 8.90746 8.27236 10.431V11.5344C7.35822 11.5344 6.61719 12.2755 6.61719 13.1896C6.61719 14.1037 7.35822 14.8448 8.27236 14.8448V15.3965C8.27236 16.7328 9.07587 17.9381 10.3095 18.4522L13.8743 19.9376C14.5468 20.2178 15.268 20.362 15.9964 20.362C16.7248 20.362 17.446 20.2177 18.1184 19.9376L21.6835 18.4521C22.9171 17.9382 23.7206 16.7329 23.7206 15.3965V14.8448C24.6347 14.8448 25.3758 14.1037 25.3758 13.1896C25.3758 12.2755 24.6347 11.5344 23.7206 11.5344Z" fill="#FFE1B2"/>
<path d="M12.1338 13.7411C11.8303 13.7411 11.582 13.4928 11.582 13.1894V12.6377C11.582 12.3342 11.8303 12.0859 12.1338 12.0859C12.4372 12.0859 12.6855 12.3342 12.6855 12.6377V13.1894C12.6855 13.4928 12.4372 13.7411 12.1338 13.7411Z" fill="#623F33"/>
<path d="M19.8603 13.7411C19.5569 13.7411 19.3086 13.4928 19.3086 13.1894V12.6377C19.3086 12.3342 19.5569 12.0859 19.8603 12.0859C20.1638 12.0859 20.412 12.3342 20.412 12.6377V13.1894C20.412 13.4928 20.1638 13.7411 19.8603 13.7411Z" fill="#623F33"/>
<path d="M15.997 17.6186C15.0161 17.6186 14.0986 17.3772 13.4797 16.9562C13.2279 16.7849 13.1624 16.4417 13.334 16.1898C13.5051 15.9382 13.8486 15.8727 14.1004 16.0441C14.5342 16.339 15.2432 16.5152 15.997 16.5152C16.7508 16.5152 17.4598 16.339 17.8935 16.0441C18.1459 15.8722 18.4886 15.9379 18.6599 16.1898C18.8315 16.4417 18.7661 16.7849 18.5142 16.9562C17.8955 17.3772 16.9779 17.6186 15.997 17.6186Z" fill="#E4B07B"/>
<path d="M26.8004 30.6392L26.102 25.0522C25.9967 24.2089 25.4163 23.501 24.6101 23.2323L21.9172 22.3346C21.4482 22.1783 20.9207 22.3453 20.6558 22.7626C19.6777 24.3036 17.9587 25.3272 15.9985 25.3272C14.0382 25.3272 12.3192 24.3035 11.3412 22.7626C11.0763 22.3453 10.5488 22.1783 10.0798 22.3346L7.3869 23.2323C6.58062 23.501 6.00035 24.2089 5.89497 25.0522L5.19662 30.6392C5.07311 31.6271 5.84345 32.4997 6.83903 32.4997H25.158C26.1535 32.4997 26.9239 31.6271 26.8004 30.6392Z" fill="#00BEA4"/>
<path d="M6.3549 23.96C6.10993 24.2701 5.94593 24.6448 5.89497 25.0526L5.19662 30.6396C5.07311 31.6275 5.84345 32.5001 6.83904 32.5001H9.92951V28.9093C9.92951 28.3784 9.7382 27.8655 9.39069 27.4642L6.3549 23.96Z" fill="#00AB9A"/>
<path d="M25.641 23.96C25.886 24.2701 26.05 24.6448 26.101 25.0526L26.7993 30.6396C26.9228 31.6275 26.1525 32.5001 25.1569 32.5001H22.0664V28.9093C22.0664 28.3784 22.2577 27.8655 22.6052 27.4642L25.641 23.96Z" fill="#00AB9A"/>
<path d="M11.1686 17.3084C10.7216 16.8291 10.4793 16.1966 10.4793 15.5412V9.28877C12.2354 9.15712 17.772 8.67829 20.9621 7.67236H11.031C10.841 7.67236 10.6571 7.6945 10.4792 7.73312V7.72795C9.22015 7.9836 8.27236 9.09643 8.27236 10.431V11.5344C7.35822 11.5344 6.61719 12.2755 6.61719 13.1896C6.61719 14.1037 7.35822 14.8448 8.27236 14.8448V15.3965C8.27236 16.7329 9.07587 17.9382 10.3095 18.4522L13.8743 19.9376C14.0488 20.0103 14.2268 20.0729 14.4072 20.1272C12.8317 18.9746 11.783 17.9671 11.1686 17.3084Z" fill="#FFD7A3"/>
</g>
<defs>
<clipPath id="clip0_24_10978">
<rect width="32" height="32" fill="white" transform="translate(0 0.5)"/>
</clipPath>
</defs>
</svg>
