<svg width="32" height="33" viewBox="0 0 32 33" fill="none" xmlns="http://www.w3.org/2000/svg">
<g clip-path="url(#clip0_24_11232)">
<path d="M26.4385 29.051L26.3333 28.6905C26.2825 28.5164 26.1128 28.4096 25.9383 28.4318L25.8273 27.5989L25.5973 25.8737C25.5973 25.8737 25.5973 25.8736 25.5973 25.8735L25.5706 25.6731C25.4498 24.7668 24.8882 23.9795 23.9634 23.5171L22.8797 22.9753C22.7042 22.8875 22.5702 23.0004 22.4413 23.1438L20.063 22.2688C19.6125 22.1186 19.3085 21.6969 19.3085 21.222V19.4425L21.6852 18.4522C22.9186 17.9382 23.7221 16.7328 23.7221 15.3964V10.4309C23.7221 8.90733 22.487 6.56885 20.9635 6.56885H11.0325C9.50889 6.56885 8.27385 8.90733 8.27385 10.4309V15.3964C8.27385 16.7328 9.07737 17.9381 10.311 18.4522L12.6876 19.4424V21.2218C12.6876 21.6968 12.3837 22.1184 11.9332 22.2686L9.55489 23.1437C9.42599 23.0003 9.29199 22.8873 9.11648 22.9751L8.03275 23.517C7.10792 23.9794 6.54641 24.7667 6.42558 25.673L6.39889 25.8734C6.39889 25.8735 6.39889 25.8735 6.39889 25.8736L6.16889 27.5988L6.05785 28.4317C5.88337 28.4095 5.71379 28.5162 5.66289 28.6904L5.55765 29.0508C5.5013 29.2439 5.61213 29.446 5.80516 29.5023L5.91103 29.5332L5.76537 30.6259C5.63282 31.6182 6.40468 32.4999 7.40572 32.4999H24.5903C25.5913 32.4999 26.3632 31.6182 26.2309 30.626L26.0852 29.5333L26.1911 29.5024C26.3841 29.4462 26.4949 29.244 26.4385 29.051Z" fill="#F6B47B"/>
<path d="M12.687 19.3276V21.2221C12.687 21.6147 12.4789 21.9705 12.1523 22.167C16.5492 22.9266 19.0622 19.6289 19.2906 19.3276H12.687Z" fill="#E2A071"/>
<path d="M21.6846 18.4522L18.1195 19.9376C17.4471 20.2177 16.7259 20.362 15.9975 20.362C15.2691 20.362 14.5479 20.2177 13.8754 19.9376L10.3105 18.4522C9.07695 17.9382 8.27344 16.7329 8.27344 15.3964V10.4309C8.27344 8.9074 9.50854 6.56885 11.0321 6.56885H20.9631C22.4866 6.56885 23.7217 8.9074 23.7217 10.4309V15.3964C23.7217 16.7329 22.9182 17.9382 21.6846 18.4522Z" fill="#FDC88E"/>
<path d="M12.1338 13.7416C11.8303 13.7416 11.582 13.4933 11.582 13.1899V12.6381C11.582 12.3347 11.8303 12.0864 12.1338 12.0864C12.4372 12.0864 12.6855 12.3347 12.6855 12.6381V13.1899C12.6855 13.4933 12.4372 13.7416 12.1338 13.7416Z" fill="#623F33"/>
<path d="M19.8603 13.7416C19.5569 13.7416 19.3086 13.4933 19.3086 13.1899V12.6381C19.3086 12.3347 19.5569 12.0864 19.8603 12.0864C20.1638 12.0864 20.412 12.3347 20.412 12.6381V13.1899C20.412 13.4933 20.1638 13.7416 19.8603 13.7416Z" fill="#623F33"/>
<path d="M15.997 17.6186C15.0161 17.6186 14.0986 17.3772 13.4797 16.9562C13.2279 16.7849 13.1624 16.4417 13.334 16.1898C13.5051 15.9382 13.8486 15.8727 14.1004 16.0441C14.5342 16.339 15.2432 16.5152 15.997 16.5152C16.7508 16.5152 17.4598 16.339 17.8935 16.0441C18.146 15.8722 18.4886 15.9379 18.66 16.1898C18.8315 16.4417 18.7661 16.7849 18.5142 16.9562C17.8955 17.3772 16.9779 17.6186 15.997 17.6186Z" fill="#E2A071"/>
<path d="M8.27344 11.0612V15.3964C8.27344 16.7327 9.07695 17.9381 10.3105 18.4521L13.8754 19.9375C14.0498 20.0102 14.2279 20.0728 14.4083 20.1271C12.8328 18.9746 11.7841 17.9671 11.1696 17.3083C10.7226 16.829 10.4803 16.1965 10.4803 15.5411V12.4576C12.0596 11.9063 16.1455 10.0957 16.2022 7.12061C16.2076 6.83944 16.2033 6.58875 16.1909 6.36523C13.5943 9.91454 9.99695 10.8453 8.27344 11.0612Z" fill="#F6B47B"/>
<path d="M25.5521 18.8512C25.5521 17.6821 24.5883 17.1881 24.5883 16.1926C24.5883 15.1971 25.8406 14.9293 25.8406 13.4369C25.8406 12.4392 25.396 11.6647 25.1011 10.9509C26.7824 3.66365 20.4754 0.5 18.759 0.5C16.9659 0.5 16.0004 1.05172 16.0004 1.05172C16.0004 1.05172 15.0348 0.5 13.2417 0.5C11.5253 0.5 5.21829 3.66366 6.8996 10.9508C6.60471 11.6646 6.16016 12.4392 6.16016 13.4368C6.16016 14.9293 7.41243 15.197 7.41243 16.1926C7.41243 17.1881 6.44864 17.6821 6.44864 18.8511C6.44864 20.0201 7.37691 20.5862 7.6785 21.4657C7.81643 21.868 7.65554 23.0747 7.65554 23.0747C7.65554 23.0747 8.63829 21.4532 8.12105 19.9636C7.60381 18.474 8.20381 18.3137 8.67278 17.6632C9.37967 16.6828 9.28381 15.5827 8.7065 14.5136C8.33367 13.8231 8.43181 13.1561 8.95436 12.6918C9.50436 12.2031 9.63333 11.3597 9.63409 11.3543C12.2461 10.5897 16.0004 9.05772 16.0004 6.56897C16.0004 9.05772 19.7546 10.5897 22.3666 11.3543C22.3674 11.3597 22.4964 12.2031 23.0463 12.6918C23.5688 13.1561 23.667 13.8231 23.2942 14.5136C22.7168 15.5827 22.621 16.6828 23.3279 17.6632C23.7968 18.3137 24.3968 18.474 23.8796 19.9636C23.3624 21.4531 24.3451 23.0747 24.3451 23.0747C24.3451 23.0747 24.1842 21.8679 24.3222 21.4657C24.6238 20.5862 25.5521 20.0201 25.5521 18.8512Z" fill="#6E4439"/>
<path d="M25.5705 25.6731C25.4497 24.7667 24.8881 23.9794 23.9633 23.5171L22.8796 22.9752C22.6793 22.8751 22.533 23.0363 22.3868 23.2059C19.4464 26.6149 15.9981 28.0864 15.9981 28.0864H15.9981H15.998C15.998 28.0864 12.5498 26.6149 9.60939 23.2059C9.46311 23.0363 9.31684 22.8751 9.11656 22.9752L8.03284 23.5171C7.10801 23.9795 6.54649 24.7668 6.42567 25.6731L5.97656 29.0411C7.43394 29.5429 9.92898 30.293 9.92898 30.293V32.4999H22.0669V30.293C22.0669 30.293 24.5619 29.5429 26.0195 29.0411L25.5705 25.6731Z" fill="#57B9DD"/>
<path d="M9.91552 30.1246C9.88179 29.4685 9.66276 28.8346 9.2671 28.307L6.67697 24.8535C6.55194 25.111 6.46407 25.3851 6.42559 25.6733L5.98828 28.9534L9.91552 30.1246Z" fill="#43A0C5"/>
<path d="M5.55765 29.0512C5.5013 29.2443 5.61213 29.4464 5.8051 29.5027L9.92923 30.7057V30.2932C9.92923 30.0326 9.88827 29.7773 9.82847 29.5268L6.11427 28.4434C5.9213 28.3871 5.71923 28.4978 5.66296 28.6908L5.55765 29.0512Z" fill="#258CAC"/>
<path d="M22.082 30.1246C22.1158 29.4685 22.3348 28.8346 22.7304 28.307L25.3206 24.8535C25.4456 25.111 25.5335 25.3851 25.572 25.6733L26.0093 28.9534L22.082 30.1246Z" fill="#43A0C5"/>
<path d="M26.438 29.0512C26.4943 29.2443 26.3835 29.4464 26.1905 29.5027L22.0664 30.7057V30.2932C22.0664 30.0326 22.1074 29.7773 22.1672 29.5268L25.8814 28.4434C26.0743 28.3871 26.2764 28.4978 26.3327 28.6908L26.438 29.0512Z" fill="#258CAC"/>
<path d="M13.2417 0.5C11.5253 0.5 5.21836 3.66366 6.8996 10.9508C6.60471 11.6646 6.16016 12.4392 6.16016 13.4368C6.16016 14.9293 7.41243 15.197 7.41243 16.1926C7.41243 17.1881 6.44864 17.6821 6.44864 18.8511C6.44864 20.0201 7.37691 20.5862 7.6785 21.4657C7.81643 21.868 7.65553 23.0747 7.65553 23.0747C7.65553 23.0747 8.63829 21.4532 8.12105 19.9636C7.60381 18.474 8.20381 18.3137 8.67278 17.6632C9.37967 16.6828 9.28381 15.5827 8.7065 14.5136C8.33367 13.8231 8.43181 13.1561 8.95436 12.6918C9.50436 12.2031 9.63333 11.3597 9.63409 11.3543L9.63353 11.3543C9.63374 11.3542 9.63388 11.3541 9.63409 11.3541C8.07547 4.18055 14.2895 1.05745 16.0004 1.052V1.05172C16.0004 1.05172 15.0348 0.5 13.2417 0.5Z" fill="#5E342E"/>
</g>
<defs>
<clipPath id="clip0_24_11232">
<rect width="32" height="32" fill="white" transform="translate(0 0.5)"/>
</clipPath>
</defs>
</svg>
