<svg width="24" height="33" viewBox="0 0 24 33" fill="none" xmlns="http://www.w3.org/2000/svg">
<path d="M3.17376 12.6379C3.17376 12.6379 2.07031 8.12247 2.07031 6.56895C2.07031 3.23565 4.82893 3.25861 4.82893 3.25861L4.82941 3.25813C6.47265 0.511517 12.5531 0.5 12.5531 0.5L13.1048 1.60345C16.1393 0.637931 20.2772 0.5 20.2772 0.5C20.2772 0.5 21.0703 1.60345 21.3806 3.25861C22.0237 6.68861 20.8289 12.6379 20.8289 12.6379H3.17376Z" fill="#734A3E"/>
<path d="M12.553 0.5C12.553 0.5 6.44961 0.5 4.82941 3.25813L4.82893 3.25861C4.82893 3.25861 2.07031 3.23565 2.07031 6.56895C2.07031 8.12247 3.17376 12.6379 3.17376 12.6379H6.73485L10.3462 7.6724C10.3462 7.6724 15.9094 4.82178 20.2772 0.5C20.2772 0.5 16.1392 0.637931 13.1048 1.60345L12.553 0.5Z" fill="#623F33"/>
<path d="M23.0247 29.6639L22.9746 29.2132C22.9548 29.0349 22.7942 28.9064 22.6159 28.9261L22.5879 28.9292L22.1032 25.0524C21.9978 24.2091 21.4175 23.5013 20.6113 23.2325L17.4382 22.1748L17.517 22.0172L16.3208 21.2197C16.0673 21.0507 15.7248 21.1192 15.5557 21.3728L15.3872 21.6256C15.3375 21.4995 15.3101 21.3631 15.3101 21.2219V19.4424L17.6867 18.4522C18.9203 17.9382 19.7238 16.7329 19.7238 15.3965V14.8448C20.6379 14.8448 21.379 14.1038 21.379 13.1896C21.379 12.7534 21.2099 12.3569 20.9341 12.0612C21.2122 10.486 21.901 6.04254 21.379 3.25861C21.0686 1.60345 20.2755 0.5 20.2755 0.5C20.2755 0.5 16.1376 0.637931 13.1031 1.60345L12.5514 0.5C12.5514 0.5 6.44797 0.5 4.82776 3.25813L4.82728 3.25861C4.82728 3.25861 4.82659 3.25861 4.82528 3.25861C4.82266 3.25861 4.81735 3.25861 4.80969 3.25882C4.80204 3.25903 4.79183 3.2593 4.77942 3.25979C4.767 3.26034 4.75232 3.2611 4.73549 3.2622C4.72707 3.26275 4.71818 3.26337 4.70873 3.26413C4.68045 3.26634 4.64763 3.26944 4.6108 3.27372C4.58625 3.27661 4.55997 3.27999 4.53204 3.28406C4.50411 3.28813 4.47459 3.29282 4.4437 3.29827C4.41273 3.30379 4.38038 3.30993 4.34673 3.31703C3.67411 3.45841 2.49632 3.94144 2.16039 5.59123C2.15198 5.63247 2.14411 5.67447 2.1368 5.71716C2.1148 5.8453 2.09777 5.98013 2.08625 6.12199C2.07473 6.26385 2.06867 6.41268 2.06867 6.56895C2.06867 6.69033 2.07542 6.82978 2.08784 6.98371C2.10025 7.13764 2.11839 7.30612 2.14108 7.48557C2.14563 7.5215 2.15039 7.55778 2.15529 7.59454C2.26329 8.4026 2.4568 9.40888 2.64625 10.3095C2.65487 10.3505 2.66349 10.3912 2.67204 10.4316C2.80087 11.0387 2.92584 11.5903 3.01866 11.9901C3.02646 12.0237 3.03397 12.0558 3.04128 12.0873C2.7797 12.3799 2.62039 12.7661 2.62039 13.1896C2.62039 14.1038 3.36142 14.8448 4.27556 14.8448V15.3965C4.27556 16.7329 5.07907 17.9382 6.31266 18.4522L8.68934 19.4426V21.222C8.68934 21.3633 8.66189 21.4996 8.61224 21.6257L8.44369 21.3729C8.27465 21.1193 7.9321 21.0508 7.67859 21.2198L6.48245 22.0173L6.56128 22.1749L3.38811 23.2326C2.58184 23.5013 2.00156 24.2092 1.89618 25.0525L1.41156 28.9293L1.3835 28.9262C1.20515 28.9064 1.0446 29.0349 1.02474 29.2132L0.974668 29.664C0.954875 29.8423 1.08336 30.0029 1.26163 30.0227L2.06867 30.1124V31.3966C2.06867 32.0059 2.56266 32.5 3.17211 32.5H5.93073H18.0686H20.8272C21.4367 32.5 21.9307 32.0059 21.9307 31.3966V30.1124L22.7377 30.0227C22.916 30.0028 23.0446 29.8422 23.0247 29.6639Z" fill="#F6B47B"/>
<path d="M22.103 25.0525C21.9975 24.2092 21.4173 23.5014 20.611 23.2326L17.0421 22.043C16.5224 23.2148 13.6546 24.2242 13.6546 24.2242L12.5511 25.3277C12.5511 25.332 11.5339 25.3277 11.4477 25.3277L10.3442 24.2242C10.3442 24.2242 7.47639 23.2149 6.95674 22.043L3.38778 23.2326C2.5815 23.5014 2.00123 24.2092 1.89585 25.0525L1.37109 29.2506L5.93039 29.7414V32.5H18.0683V29.7414H22.689L22.103 25.0525Z" fill="#FF4F4F"/>
<path d="M3.17376 12.6379C3.17376 12.6379 2.07031 8.12247 2.07031 6.56895C2.07031 3.23565 4.82893 3.25861 4.82893 3.25861L4.82941 3.25813C6.42665 0.546 12.5531 0.5 12.5531 0.5L13.1048 1.60345C16.1393 0.637931 20.2772 0.5 20.2772 0.5C20.2772 0.5 21.0703 1.60345 21.3806 3.25861C22.0237 6.68861 20.8289 12.6379 20.8289 12.6379H3.17376Z" fill="#734A3E"/>
<path d="M12.553 0.5C12.553 0.5 6.44961 0.5 4.82941 3.25813L4.82893 3.25861C4.82893 3.25861 2.07031 3.23565 2.07031 6.56895C2.07031 8.12247 3.17376 12.6379 3.17376 12.6379H6.73485L10.3462 7.6724C10.3462 7.6724 15.9094 4.82178 20.2772 0.5C20.2772 0.5 16.1392 0.637931 13.1048 1.60345L12.553 0.5Z" fill="#623F33"/>
<path d="M15.3103 19.3965H8.68961V21.2219C8.68961 21.619 8.46989 21.9688 8.13672 22.1639C12.7639 22.9737 15.3103 19.3965 15.3103 19.3965Z" fill="#E2A071"/>
<path d="M19.7245 11.5344V10.431C19.7245 8.90746 18.4894 7.67236 16.9659 7.67236H7.03488C5.51136 7.67236 4.27626 8.90746 4.27626 10.431V11.5344C3.36213 11.5344 2.62109 12.2755 2.62109 13.1896C2.62109 14.1037 3.36213 14.8448 4.27626 14.8448V15.3965C4.27626 16.7328 5.07978 17.9381 6.31336 18.4522L9.87825 19.9376C10.5507 20.2178 11.2719 20.362 12.0003 20.362C12.7287 20.362 13.4499 20.2177 14.1223 19.9376L17.6874 18.4521C18.921 17.9382 19.7245 16.7329 19.7245 15.3965V14.8448C20.6386 14.8448 21.3797 14.1037 21.3797 13.1896C21.3797 12.2755 20.6386 11.5344 19.7245 11.5344Z" fill="#FDC88E"/>
<path d="M8.13766 13.7411C7.83421 13.7411 7.58594 13.4928 7.58594 13.1894V12.6377C7.58594 12.3342 7.83421 12.0859 8.13766 12.0859C8.44111 12.0859 8.68938 12.3342 8.68938 12.6377V13.1894C8.68938 13.4928 8.44111 13.7411 8.13766 13.7411Z" fill="#623F33"/>
<path d="M15.8603 13.7411C15.5569 13.7411 15.3086 13.4928 15.3086 13.1894V12.6377C15.3086 12.3342 15.5569 12.0859 15.8603 12.0859C16.1638 12.0859 16.412 12.3342 16.412 12.6377V13.1894C16.412 13.4928 16.1638 13.7411 15.8603 13.7411Z" fill="#623F33"/>
<path d="M12.0009 17.6186C11.02 17.6186 10.1025 17.3772 9.48365 16.9562C9.23179 16.7849 9.16627 16.4417 9.33793 16.1898C9.50896 15.9382 9.85248 15.8727 10.1043 16.0441C10.5381 16.339 11.2471 16.5152 12.0009 16.5152C12.7547 16.5152 13.4637 16.339 13.8974 16.0441C14.1498 15.8722 14.4925 15.9379 14.6638 16.1898C14.8354 16.4417 14.77 16.7849 14.5181 16.9562C13.8994 17.3772 12.9818 17.6186 12.0009 17.6186Z" fill="#E2A071"/>
<path d="M5.93113 30.158V28.9093C5.93113 28.3785 5.73982 27.8655 5.3923 27.4643L2.35652 23.96C2.11155 24.2701 1.94755 24.6448 1.89659 25.0526L1.32031 29.6627C2.19783 29.7154 4.53189 29.9888 5.93113 30.158Z" fill="#F23F44"/>
<path d="M5.93079 29.4316L1.38349 28.9263C1.20515 28.9065 1.0446 29.035 1.02474 29.2133L0.974668 29.664C0.954875 29.8423 1.08336 30.0029 1.26163 30.0227L5.93079 30.5416V29.4316Z" fill="#D6343A"/>
<path d="M18.0703 30.158V28.9093C18.0703 28.3785 18.2616 27.8655 18.6091 27.4643L21.6449 23.96C21.8899 24.2701 22.0539 24.6448 22.1049 25.0526L22.6811 29.6627C21.8037 29.7154 19.4696 29.9888 18.0703 30.158Z" fill="#F23F44"/>
<path d="M18.0703 29.4316L22.6176 28.9263C22.796 28.9065 22.9565 29.035 22.9764 29.2133L23.0264 29.664C23.0462 29.8423 22.9178 30.0029 22.7395 30.0227L18.0703 30.5416V29.4316Z" fill="#D6343A"/>
<path d="M8.44171 21.3727L10.3425 24.224L8.68736 26.4309L6.48047 22.0171L7.6766 21.2197C7.93012 21.0507 8.27267 21.1191 8.44171 21.3727Z" fill="#F23F44"/>
<path d="M15.5532 21.3727L13.6523 24.224L15.3075 26.4309L17.5144 22.0171L16.3183 21.2197C16.0648 21.0507 15.7223 21.1191 15.5532 21.3727Z" fill="#F23F44"/>
<path d="M12.0009 29.7414C11.6963 29.7414 11.4492 29.4944 11.4492 29.1897V25.3276H12.5527V29.1897C12.5527 29.4945 12.3057 29.7414 12.0009 29.7414Z" fill="#F23F44"/>
<path d="M7.17253 17.3085C6.7255 16.8292 6.48322 16.1967 6.48322 15.5412V9.21077C8.42163 8.99553 12.6442 8.48271 16.966 7.67236H7.03488C6.84495 7.67236 6.66102 7.6945 6.48315 7.73312V7.72795C5.22405 7.9836 4.27626 9.09643 4.27626 10.431V11.5344C3.36213 11.5344 2.62109 12.2755 2.62109 13.1896C2.62109 14.1037 3.36213 14.8448 4.27626 14.8448V15.3965C4.27626 16.7329 5.07978 17.9382 6.31336 18.4522L9.87818 19.9376C10.0527 20.0103 10.2307 20.0729 10.4111 20.1272C8.83563 18.9747 7.78694 17.9672 7.17253 17.3085Z" fill="#F6B47B"/>
</svg>
