<svg width="24" height="25" viewBox="0 0 24 25" fill="none" xmlns="http://www.w3.org/2000/svg">
<path opacity="0.3" d="M21 22.5H3C2.4 22.5 2 22.1 2 21.5V5.5C2 4.9 2.4 4.5 3 4.5H21C21.6 4.5 22 4.9 22 5.5V21.5C22 22.1 21.6 22.5 21 22.5Z" fill="#663259"/>
<path d="M6 6.5C5.4 6.5 5 6.1 5 5.5V3.5C5 2.9 5.4 2.5 6 2.5C6.6 2.5 7 2.9 7 3.5V5.5C7 6.1 6.6 6.5 6 6.5ZM11 5.5V3.5C11 2.9 10.6 2.5 10 2.5C9.4 2.5 9 2.9 9 3.5V5.5C9 6.1 9.4 6.5 10 6.5C10.6 6.5 11 6.1 11 5.5ZM15 5.5V3.5C15 2.9 14.6 2.5 14 2.5C13.4 2.5 13 2.9 13 3.5V5.5C13 6.1 13.4 6.5 14 6.5C14.6 6.5 15 6.1 15 5.5ZM19 5.5V3.5C19 2.9 18.6 2.5 18 2.5C17.4 2.5 17 2.9 17 3.5V5.5C17 6.1 17.4 6.5 18 6.5C18.6 6.5 19 6.1 19 5.5Z" fill="#663259"/>
<rect x="6" y="9.07129" width="1.71429" height="1.71429" rx="0.857143" fill="#663259"/>
<rect x="6" y="12.5" width="1.71429" height="1.71429" rx="0.857143" fill="#663259"/>
<rect x="6" y="15.9287" width="1.71429" height="1.71428" rx="0.857142" fill="#663259"/>
<rect x="9.42969" y="9.07129" width="1.71429" height="1.71429" rx="0.857143" fill="#663259"/>
<rect x="9.42969" y="12.5" width="1.71429" height="1.71429" rx="0.857143" fill="#663259"/>
<rect x="9.42969" y="15.9287" width="1.71429" height="1.71428" rx="0.857142" fill="#663259"/>
<rect x="12.8555" y="15.9287" width="1.71429" height="1.71428" rx="0.857142" fill="#663259"/>
<rect x="12.8555" y="9.07129" width="1.71429" height="1.71429" rx="0.857143" fill="#663259"/>
<rect x="12.8555" y="12.5" width="1.71429" height="1.71429" rx="0.857143" fill="#663259"/>
<rect x="16.2852" y="9.07129" width="1.71428" height="1.71429" rx="0.857142" fill="#663259"/>
<rect x="16.2852" y="12.5" width="1.71428" height="1.71429" rx="0.857142" fill="#663259"/>
</svg>
