<svg width="16" height="15" viewBox="0 0 16 15" fill="none" xmlns="http://www.w3.org/2000/svg">
<path d="M3 2C3 1.17157 3.67157 0.5 4.5 0.5H11.5C12.3284 0.5 13 1.17157 13 2V2.5H13.5C14.8807 2.5 16 3.61929 16 5V10C16 10.8284 15.3284 11.5 14.5 11.5H13V13C13 13.8284 12.3284 14.5 11.5 14.5H4.5C3.67157 14.5 3 13.8284 3 13V11.5H1.5C0.671573 11.5 0 10.8284 0 10V5C0 3.61929 1.11929 2.5 2.5 2.5H3V2ZM4 2.5H12V2C12 1.72386 11.7761 1.5 11.5 1.5H4.5C4.22386 1.5 4 1.72386 4 2V2.5ZM3 10.5V9C3 8.17157 3.67157 7.5 4.5 7.5H11.5C12.3284 7.5 13 8.17157 13 9V10.5H14.5C14.7761 10.5 15 10.2761 15 10V5C15 4.17157 14.3284 3.5 13.5 3.5H2.5C1.67157 3.5 1 4.17157 1 5V10C1 10.2761 1.22386 10.5 1.5 10.5H3ZM4.5 8.5C4.22386 8.5 4 8.72386 4 9V13C4 13.2761 4.22386 13.5 4.5 13.5H11.5C11.7761 13.5 12 13.2761 12 13V9C12 8.72386 11.7761 8.5 11.5 8.5H4.5Z" fill="#7E8299"/>
</svg>
