<svg width="14" height="17" viewBox="0 0 14 17" fill="none" xmlns="http://www.w3.org/2000/svg">
<path d="M3.4986 9.5C3.22245 9.5 2.9986 9.72386 2.9986 10V12C2.9986 12.2761 3.22245 12.5 3.4986 12.5C3.77474 12.5 3.9986 12.2761 3.9986 12V11.8336H4.3318C4.9762 11.8336 5.4986 11.3112 5.4986 10.6668C5.4986 10.0224 4.9762 9.5 4.3318 9.5H3.4986ZM4.3318 10.8336H3.9986V10.5H4.3318C4.42392 10.5 4.4986 10.5747 4.4986 10.6668C4.4986 10.7589 4.42392 10.8336 4.3318 10.8336ZM8.99931 9.99937C8.99965 9.72347 9.22341 9.5 9.49931 9.5H10.4976C10.7738 9.5 10.9976 9.72386 10.9976 10C10.9976 10.2761 10.7738 10.5 10.4976 10.5H9.99868L9.99825 10.8345H10.4976C10.7738 10.8345 10.9976 11.0583 10.9976 11.3345C10.9976 11.6106 10.7738 11.8345 10.4976 11.8345H9.99889L9.9993 11.9987C10 12.2749 9.77671 12.4993 9.50057 12.5C9.22443 12.5007 9.00001 12.2774 8.99931 12.0013L8.99762 11.3339L8.99931 9.99937ZM6.49719 9.5C6.22105 9.5 5.99719 9.72386 5.99719 10V12C5.99719 12.2761 6.22105 12.5 6.49719 12.5H6.99864C7.82706 12.5 8.49863 11.8284 8.49864 11C8.49865 10.1716 7.82707 9.5 6.99864 9.5H6.49719ZM6.99719 11.5V10.5H6.99864C7.27478 10.5 7.49864 10.7239 7.49864 11C7.49864 11.2761 7.27478 11.5 6.99864 11.5H6.99719ZM0.998596 2.5C0.998596 1.39543 1.89403 0.5 2.9986 0.5H7.58438C7.98221 0.5 8.36374 0.658035 8.64504 0.93934L12.5593 4.85355C12.8406 5.13486 12.9986 5.51639 12.9986 5.91421V7.58165C13.5805 7.78793 13.9973 8.34321 13.9973 8.99585V12.999C13.9973 13.6517 13.5805 14.207 12.9986 14.4132V14.5C12.9986 15.6046 12.1032 16.5 10.9986 16.5H2.9986C1.89403 16.5 0.998596 15.6046 0.998596 14.5V14.4132C0.416734 14.2069 0 13.6516 0 12.999V8.99585C0 8.34326 0.416734 7.78801 0.998596 7.5817V2.5ZM11.9986 6.5H8.4986C7.67017 6.5 6.9986 5.82843 6.9986 5V1.5H2.9986C2.44631 1.5 1.9986 1.94772 1.9986 2.5V7.49585H11.9986V6.5ZM1.9986 14.499C1.9986 15.0513 2.44631 15.5 2.9986 15.5H10.9986C11.5509 15.5 11.9986 15.0513 11.9986 14.499H1.9986ZM7.9986 1.70711V5C7.9986 5.27614 8.22245 5.5 8.4986 5.5H11.7915L7.9986 1.70711ZM1.5 8.49585C1.22386 8.49585 1 8.71971 1 8.99585V12.999C1 13.2752 1.22386 13.499 1.5 13.499H12.4973C12.7735 13.499 12.9973 13.2752 12.9973 12.999V8.99585C12.9973 8.71971 12.7735 8.49585 12.4973 8.49585H1.5Z" fill="#7E8299"/>
</svg>
