<svg width="15" height="18" viewBox="0 0 15 18" fill="none" xmlns="http://www.w3.org/2000/svg">
<path d="M6.5 0.5C8.15685 0.5 9.5 1.84315 9.5 3.5V4.5H10.5C11.6046 4.5 12.5 5.39543 12.5 6.5V7.73168C12.1694 7.53974 11.8378 7.27698 11.5057 6.93045L11.5 6.92449V6.5C11.5 5.94772 11.0523 5.5 10.5 5.5H2.5C1.94772 5.5 1.5 5.94772 1.5 6.5V13.5C1.5 14.0523 1.94772 14.5 2.5 14.5H5.87561C5.99496 14.849 6.14338 15.1828 6.32179 15.5H2.5C1.39543 15.5 0.5 14.6046 0.5 13.5V6.5C0.5 5.39543 1.39543 4.5 2.5 4.5H3.5V3.5C3.5 1.84315 4.84315 0.5 6.5 0.5ZM6.5 1.5C5.39543 1.5 4.5 2.39543 4.5 3.5V4.5H8.5V3.5C8.5 2.39543 7.60457 1.5 6.5 1.5ZM11.5 8.26439C11.8225 8.50834 12.1556 8.7024 12.5 8.84709C12.8233 8.98293 13.1565 9.07525 13.5 9.12446C13.6966 9.15263 13.8966 9.16667 14.1 9.16667C14.2933 9.16667 14.4546 9.30949 14.4919 9.49936L14.5 9.58333V12.0844C14.5 14.7663 13.187 16.5896 10.6265 17.4786C10.5444 17.5071 10.4556 17.5071 10.3735 17.4786C9.64824 17.2268 9.02307 16.9 8.49947 16.5C8.11463 16.206 7.78467 15.8724 7.51017 15.5C7.28387 15.193 7.09527 14.8595 6.94469 14.5C6.67831 13.864 6.53093 13.1466 6.50437 12.3497L6.5 12.0844V9.58333C6.5 9.35321 6.67909 9.16667 6.9 9.16667C8.12338 9.16667 9.22333 8.65752 10.2178 7.62198C10.3741 7.45921 10.6276 7.45936 10.7837 7.62231C11.0165 7.86524 11.2552 8.07919 11.5 8.26439Z" fill="#00A3FF"/>
</svg>
