<svg width="81" height="118" viewBox="0 0 81 118" fill="none" xmlns="http://www.w3.org/2000/svg">
<path d="M33.0779 0.5C63.3803 14.1349 72.7801 41.9913 57.6359 70.6441C56.065 73.7754 54.1732 76.7387 51.9904 79.4872C42.9858 90.3141 37.3967 102.091 42.2942 117.5C27.6723 112.708 15.4779 106.673 6.72735 95.2595C-0.498928 85.8856 -1.2893 75.366 3.59408 64.9722C6.61444 58.546 11.2438 52.8042 15.4779 46.9647C20.0932 40.5384 25.5693 34.671 29.7188 27.9933C34.6869 19.9185 37.3544 11.0195 33.0779 0.5Z" fill="white"/>
<path d="M70.6338 47.0905C83.9714 66.4531 86.1591 91.0406 62.1655 105.57C57.4092 108.461 53.0339 111.982 48.0517 115.558C45.0737 109.216 45.9064 103.39 48.2493 97.7602C49.5814 94.2787 51.4423 91.0188 53.7678 88.0928C63.6052 76.4837 68.912 63.0863 70.6338 47.0905Z" fill="url(#paint0_linear_7_27828)"/>
<defs>
<linearGradient id="paint0_linear_7_27828" x1="55.6713" y1="80.3353" x2="83.9472" y2="80.3353" gradientUnits="userSpaceOnUse">
<stop stop-color="#3445E5"/>
<stop offset="1" stop-color="#DCFDFD"/>
</linearGradient>
</defs>
</svg>
