<svg width="80" height="49" viewBox="0 0 80 49" fill="none" xmlns="http://www.w3.org/2000/svg">
<rect y="0.5" width="80" height="48" rx="6" fill="#F6F8FA"/>
<g clip-path="url(#clip0_62_19635)">
<path d="M47.1299 36.4653H33.8789V12.7275H47.1302L47.1299 36.4653Z" fill="#FF5F00"/>
<path d="M34.718 24.5962C34.718 19.781 36.9798 15.4916 40.502 12.7273C37.8359 10.6318 34.5384 9.49453 31.1432 9.49953C22.7796 9.49953 16 16.2584 16 24.5962C16 32.934 22.7796 39.6929 31.1432 39.6929C34.5385 39.6979 37.8361 38.5606 40.5022 36.4651C36.9803 33.7013 34.718 29.4117 34.718 24.5962Z" fill="#EB001B"/>
<path d="M65.0074 24.5967C65.0074 32.9345 58.2277 39.6934 49.8641 39.6934C46.4685 39.6984 43.1705 38.5611 40.5039 36.4656C44.027 33.7013 46.2889 29.4121 46.2889 24.5967C46.2889 19.7813 44.027 15.4921 40.5039 12.7278C43.1705 10.6324 46.4684 9.4951 49.8639 9.50002C58.2275 9.50002 65.0071 16.2589 65.0071 24.5967" fill="#F79E1B"/>
</g>
<defs>
<clipPath id="clip0_62_19635">
<rect width="49" height="38" fill="white" transform="translate(16 9.5)"/>
</clipPath>
</defs>
</svg>
