<svg width="25" height="25" viewBox="0 0 25 25" fill="none" xmlns="http://www.w3.org/2000/svg">
<g clip-path="url(#clip0_7_24579)">
<path d="M18.0778 10.5653L15.48 15.2664L14.7696 13.2676C14.5677 12.6965 14.0314 12.3204 13.4324 12.3204H11.2456L9.23279 5.516C8.87063 4.31113 7.22698 4.10219 6.58624 5.3001L3.89094 10.8648H1.75281C0.965809 10.8648 0.332031 11.4986 0.332031 12.2856C0.332031 13.0726 0.965809 13.7064 1.75281 13.7064H4.78241C5.32565 13.7064 5.8271 13.393 6.0639 12.9054L7.54735 9.84102L8.82187 14.1451C9.00295 14.7511 9.55316 15.162 10.1869 15.162H12.4295L13.8573 19.1875C14.1846 20.1277 15.6333 20.6431 16.4411 19.4034L20.1672 12.6756H22.9113C23.6983 12.6756 24.332 12.0418 24.332 11.2548C24.332 10.4678 23.6983 9.83405 22.9113 9.83405H19.3315C18.8021 9.82709 18.3286 10.1126 18.0778 10.5653Z" fill="#04C8C8"/>
</g>
<defs>
<clipPath id="clip0_7_24579">
<rect width="24" height="24" fill="white" transform="translate(0.332031 0.5)"/>
</clipPath>
</defs>
</svg>
