<svg width="24" height="25" viewBox="0 0 24 25" fill="none" xmlns="http://www.w3.org/2000/svg">
<path opacity="0.3" d="M20.9 13.4C20.3 13.4 19.9 13 19.9 12.4C19.9 11.8 20.3 11.4 20.9 11.4H21.8C21.3 6.7 17.6 2.9 12.9 2.5V3.4C12.9 4 12.5 4.4 11.9 4.4C11.3 4.4 10.9 4 10.9 3.4V2.5C6.19999 3 2.4 6.7 2 11.4H2.89999C3.49999 11.4 3.89999 11.8 3.89999 12.4C3.89999 13 3.49999 13.4 2.89999 13.4H2C2.5 18.1 6.19999 21.9 10.9 22.3V21.4C10.9 20.8 11.3 20.4 11.9 20.4C12.5 20.4 12.9 20.8 12.9 21.4V22.3C17.6 21.8 21.4 18.1 21.8 13.4H20.9Z" fill="#7239EA"/>
<path d="M16.8984 11.3999H13.5984C13.3984 11.0999 13.1984 10.8999 12.8984 10.6999V6.3999C12.8984 5.7999 12.4984 5.3999 11.8984 5.3999C11.2984 5.3999 10.8984 5.7999 10.8984 6.3999V10.6999C10.5984 10.8999 10.3984 11.0999 10.1984 11.3999H9.89844C9.29844 11.3999 8.89844 11.7999 8.89844 12.3999C8.89844 12.9999 9.29844 13.3999 9.89844 13.3999H10.1984C10.3984 13.6999 10.5984 13.8999 10.8984 14.0999V14.3999C10.8984 14.9999 11.2984 15.3999 11.8984 15.3999C12.4984 15.3999 12.8984 14.9999 12.8984 14.3999V14.0999C13.1984 13.8999 13.3984 13.6999 13.5984 13.3999H16.8984C17.4984 13.3999 17.8984 12.9999 17.8984 12.3999C17.8984 11.7999 17.4984 11.3999 16.8984 11.3999Z" fill="#7239EA"/>
</svg>
