<svg width="7" height="11" viewBox="0 0 7 11" fill="none" xmlns="http://www.w3.org/2000/svg">
<g clip-path="url(#clip0_24_127)">
<path d="M6.14645 6.64645C6.34171 6.45118 6.65829 6.45118 6.85355 6.64645C7.04882 6.84171 7.04882 7.15829 6.85355 7.35355L3.85355 10.3536C3.66427 10.5428 3.35947 10.5495 3.16214 10.3686L0.16214 7.61858C-0.041419 7.43198 -0.0551701 7.1157 0.131426 6.91214C0.318022 6.70858 0.634305 6.69483 0.837865 6.88142L3.48496 9.30793L6.14645 6.64645Z" fill="#B5B5C3"/>
<path d="M6.14645 4.35355C6.34171 4.54882 6.65829 4.54882 6.85355 4.35355C7.04882 4.15829 7.04882 3.84171 6.85355 3.64645L3.85355 0.646447C3.66427 0.457158 3.35947 0.450535 3.16214 0.631424L0.16214 3.38142C-0.041419 3.56802 -0.0551701 3.8843 0.131426 4.08786C0.318022 4.29142 0.634305 4.30517 0.837865 4.11858L3.48496 1.69207L6.14645 4.35355Z" fill="#B5B5C3"/>
</g>
<defs>
<clipPath id="clip0_24_127">
<rect width="7" height="10" fill="white" transform="translate(0 0.5)"/>
</clipPath>
</defs>
</svg>
