<svg width="80" height="49" viewBox="0 0 80 49" fill="none" xmlns="http://www.w3.org/2000/svg">
<rect y="0.5" width="80" height="48" rx="6" fill="#F6F8FA"/>
<path d="M36.71 34.1833H32.059L34.9658 15.828H39.6174L36.71 34.1833ZM28.1462 15.828L23.712 28.4529L23.1874 25.7343L23.1878 25.7353L21.6228 17.4807C21.6228 17.4807 21.4336 15.828 19.4165 15.828H12.086L12 16.1388C12 16.1388 14.2417 16.618 16.8652 18.2368L20.906 34.1838H25.7521L33.1518 15.828H28.1462ZM64.7293 34.1833H69L65.2765 15.8275H61.5376C59.8111 15.8275 59.3906 17.1954 59.3906 17.1954L52.4538 34.1833H57.3023L58.2719 31.4568H64.1845L64.7293 34.1833ZM59.6113 27.6904L62.0552 20.8214L63.43 27.6904H59.6113ZM52.8175 20.242L53.4813 16.3003C53.4813 16.3003 51.4331 15.5 49.298 15.5C46.9899 15.5 41.5088 16.5365 41.5088 21.5765C41.5088 26.3186 47.9418 26.3775 47.9418 28.8683C47.9418 31.3591 42.1716 30.9128 40.2673 29.3421L39.5758 33.4635C39.5758 33.4635 41.6526 34.5 44.8257 34.5C47.9996 34.5 52.7879 32.8115 52.7879 28.2158C52.7879 23.4433 46.297 22.999 46.297 20.924C46.2975 18.8486 50.8272 19.1152 52.8175 20.242Z" fill="#2566AF"/>
<path d="M23.1878 25.7349L21.6228 17.4803C21.6228 17.4803 21.4336 15.8276 19.4165 15.8276H12.086L12 16.1384C12 16.1384 15.5233 16.8887 18.9028 19.6996C22.1341 22.3863 23.1878 25.7349 23.1878 25.7349Z" fill="#E6A540"/>
</svg>
